<?xml version="1.0" encoding="utf-8"?>
<!-- Generator: Adobe Illustrator 26.4.1, SVG Export Plug-In . SVG Version: 6.00 Build 0)  -->
<svg version="1.1" id="object" xmlns="http://www.w3.org/2000/svg" xmlns:xlink="http://www.w3.org/1999/xlink" x="0px" y="0px"
	 viewBox="0 0 1600 1200" style="enable-background:new 0 0 1600 1200;" xml:space="preserve">
<style type="text/css">
	.st0{opacity:0.13;}
	.st1{fill:#CED7F4;}
	.st2{fill:#E6ECFC;}
	.st3{fill:#388D76;}
	.st4{fill:#32627F;}
	.st5{fill:#62D37A;}
	.st6{fill:#EF8720;}
	.st7{fill:#FFE94D;}
	.st8{fill:#FFA942;}
	.st9{fill:#FCD554;}
	.st10{fill:#FF8243;}
	.st11{opacity:0.75;}
	.st12{fill:#FFFFFF;}
	.st13{fill:#8A98DD;}
	.st14{fill:#ACB9EA;}
	.st15{fill:#191235;}
	.st16{fill:#3D237C;}
	.st17{opacity:0.64;}
	.st18{opacity:0.58;}
	.st19{fill:#5B3939;}
	.st20{fill:#F48E76;}
	.st21{fill:#5A6CAF;}
	.st22{fill:#DAE0F2;}
	.st23{opacity:0.71;}
	.st24{opacity:0.54;}
	.st25{fill:#C65252;}
	.st26{fill:#604A42;}
	.st27{fill:#FFD3B6;}
	.st28{fill:#E05896;}
	.st29{fill:#C13D92;}
	.st30{fill:#F766A1;}
	.st31{fill:#FC81B9;}
	.st32{fill:#FFC0E3;}
	.st33{fill:#3D325E;}
	.st34{fill:#FFE088;}
</style>
<g class="st0">
	<rect class="st1" width="1600" height="1200"/>
</g>
<g>
	<g>
		<path class="st2" d="M301.5,1010.3V825.6h50.1v-89.1h110.4v73h43.2V722h58.9v131.4h46.4v147.1h342.2V883.1h44.3V758.2h36.4v-23.5
			h56.7v170.8h62.7v-79.9h36.9v79.1h54.7v117.9l-892.9,33.6C351.6,1056.3,301.5,1059.3,301.5,1010.3z"/>
	</g>
	<g>
		<g>
			<g>
				<path class="st3" d="M281.2,1011.6c0,0-24.5-20.8-30.9-55.6c-6.3-34.8,25.7-94,27.8-89.3c2.1,4.7,12.9,27.1,19.1,37.2
					c6.2,10.1,29.8,30.4,33,65.2c3.3,34.8-8.8,62.8-8.8,62.8l-13.9-3C307.6,1029,293.8,1022.4,281.2,1011.6z"/>
				<path class="st4" d="M316.6,1030.2c-0.1-0.2-9.9-12.9-20.1-34.4l21.3-65.4l-2.1-0.6l-20.5,63c-4.4-9.6-8.8-20.7-12.4-33.2
					c-4-13.5-5.8-27.6-6.4-40.6l18.1-21.1l-1.8-1.2l-16.4,19.1c-0.9-27,3.1-48.5,3.1-48.8l-2.2-0.4c-0.1,0.4-6.8,36.6-0.8,74.1
					c-9.8-6.3-22.9-17.5-23-17.6l-1.5,1.3c0.6,0.5,14.9,12.7,25,18.9c1,5.6,2.2,11.2,3.9,16.8c2.5,8.5,5.3,16.4,8.3,23.6l-34.9-16.2
					l-1,1.7l36.9,17.1c11.7,27.9,24.7,44.8,24.9,45L316.6,1030.2z"/>
			</g>
			<g>
				<g>
					<path class="st5" d="M297.2,1048.5c0,0-23.4,3-48-11.9c-24.5-14.9-48.1-64.6-44.3-63.3c3.8,1.3,22.5,7,31.4,8.8
						c9,1.8,31.6-0.9,54.9,15.8s35.7,38.4,35.7,38.4l-7.7,6.3C319.3,1042.6,309.3,1047.1,297.2,1048.5z"/>
				</g>
				<path class="st3" d="M323.8,1038.2c-0.2,0-12.3-1.2-30.1-6.8l-32-46.9l-1.3,0.9l30.9,45.2c-7.9-2.6-16.7-6-26.1-10.6
					c-10.1-4.9-19.8-11.4-28.2-17.9l-5.6-21.5l-1.5,0.4l5.1,19.5c-17.3-13.8-29.1-27.5-29.3-27.7l-1.2,1
					c0.2,0.3,20.1,23.3,46.1,39.8c-8.1,2.2-20.7,3.8-20.8,3.8l0.2,1.6c0.6-0.1,14.3-1.8,22.4-4.2c3.9,2.4,8,4.7,12.1,6.7
					c6.4,3.1,12.6,5.7,18.3,7.8l-24.9,11.3l0.7,1.4l26.3-12c22.5,8.1,38.6,9.7,38.8,9.7L323.8,1038.2z"/>
			</g>
		</g>
		<g>
			<g>
				<path class="st3" d="M1239.4,1011.6c0,0,24.5-20.8,30.9-55.6c6.3-34.8-25.7-94-27.8-89.3c-2.1,4.7-12.9,27.1-19.1,37.2
					c-6.2,10.1-29.8,30.4-33,65.2c-3.3,34.8,8.8,62.8,8.8,62.8l13.9-3C1213,1029,1226.9,1022.4,1239.4,1011.6z"/>
				<path class="st4" d="M1204.1,1030.2c0.1-0.2,9.9-12.9,20.1-34.4l-21.3-65.4l2.1-0.6l20.5,63c4.4-9.6,8.8-20.7,12.4-33.2
					c4-13.5,5.8-27.6,6.4-40.6l-18.1-21.1l1.8-1.2l16.4,19.1c0.9-27-3.1-48.5-3.1-48.8l2.2-0.4c0.1,0.4,6.8,36.6,0.8,74.1
					c9.8-6.3,22.9-17.5,23-17.6l1.5,1.3c-0.6,0.5-14.9,12.7-25,18.9c-1,5.6-2.2,11.2-3.9,16.8c-2.5,8.5-5.3,16.4-8.3,23.6l34.9-16.2
					l1,1.7l-36.9,17.1c-11.7,27.9-24.7,44.8-24.9,45L1204.1,1030.2z"/>
			</g>
			<g>
				<g>
					<path class="st5" d="M1223.4,1048.5c0,0,23.4,3,48-11.9c24.5-14.9,48.1-64.6,44.3-63.3c-3.8,1.3-22.5,7-31.4,8.8
						c-9,1.8-31.6-0.9-54.9,15.8c-23.2,16.6-35.7,38.4-35.7,38.4l7.7,6.3C1201.3,1042.6,1211.3,1047.1,1223.4,1048.5z"/>
				</g>
				<path class="st3" d="M1196.8,1038.2c0.2,0,12.3-1.2,30.1-6.8l32-46.9l1.3,0.9l-30.9,45.2c7.9-2.6,16.7-6,26.1-10.6
					c10.1-4.9,19.8-11.4,28.2-17.9l5.6-21.5l1.5,0.4l-5.1,19.5c17.3-13.8,29.1-27.5,29.3-27.7l1.2,1c-0.2,0.3-20.1,23.3-46.1,39.8
					c8.1,2.2,20.7,3.8,20.8,3.8l-0.2,1.6c-0.6-0.1-14.3-1.8-22.4-4.2c-3.9,2.4-8,4.7-12.1,6.7c-6.4,3.1-12.6,5.7-18.3,7.8l24.9,11.3
					l-0.7,1.4l-26.3-12c-22.5,8.1-38.6,9.7-38.8,9.7L1196.8,1038.2z"/>
			</g>
		</g>
	</g>
	<g>
		<g>
			<g>
				<path class="st5" d="M354.4,1034.6c0,0-15.1-12.9-2.6-34.9s29.7,4.9,29.7,4.9s11.9-14.4,19.6-11.5c7.7,3,11.3,11.5,11.3,11.5
					s9.5-8.5,16.6-4.9s13.1,7.7,13.1,7.7s-8.3-13.4,5.4-24.2c13.7-10.8,23.7,4.3,25.5,12.5c1.8,8.2,1.8,8.2,1.8,8.2
					s13.5-10.8,18.3-2.4c4.9,8.4,4.9,8.4,4.9,8.4s10.4-13.9,21-10.1c10.6,3.8,21,8,21,8s-15.2-38.3,5.6-40.7
					c20.8-2.4,20.2,28.7,20.2,28.7s4.8-11.5,17.2-2.5s11.3,19.9,11.3,19.9l-267.5,34.3C326.8,1047.4,335.1,1018.4,354.4,1034.6z"/>
			</g>
			<path class="st3" d="M450,1033.7c0,0-16.2-14.5-2.6-39.1c13.6-24.5,31.9,5.7,31.9,5.7s12.9-16.1,21.2-12.7
				c8.3,3.4,12.1,12.9,12.1,12.9s10.3-9.4,17.9-5.4c7.6,4,14,8.7,14,8.7s-8.9-15.1,5.9-27.1c14.8-12,25.4,5,27.3,14.2
				s1.9,9.1,1.9,9.1s14.5-11.9,19.7-2.6s5.2,9.4,5.2,9.4s11.3-15.5,22.6-11.2c11.3,4.3,22.5,9.1,22.5,9.1s-16-43,6.3-45.5
				c22.4-2.5,21.5,32.2,21.5,32.2s5.2-12.8,18.5-2.7c13.4,10.1,12,22.4,12,22.4l-287.8,36.7C420.3,1047.8,429.4,1015.4,450,1033.7z"
				/>
		</g>
		<g>
			<g>
				<path class="st5" d="M1189.6,1026.3c0,0,14.6-13.5,1.3-35s-29.5,6.1-29.5,6.1s-12.5-14-20.1-10.7c-7.6,3.3-10.8,11.9-10.8,11.9
					s-9.8-8.1-16.8-4.2c-7,3.8-12.8,8.2-12.8,8.2s7.8-13.7-6.3-24c-14.1-10.3-23.5,5.3-25,13.5c-1.5,8.2-1.5,8.2-1.5,8.2
					s-13.9-10.2-18.4-1.7c-4.5,8.5-4.5,8.5-4.5,8.5s-10.9-13.5-21.4-9.3c-10.4,4.2-20.6,8.8-20.6,8.8s13.6-38.9-7.3-40.5
					c-20.9-1.6-19.1,29.5-19.1,29.5s-5.2-11.3-17.3-1.9c-12.1,9.4-10.5,20.3-10.5,20.3l268.7,23.8
					C1217.7,1038,1208.3,1009.3,1189.6,1026.3z"/>
			</g>
			<path class="st3" d="M1067.4,1017.4c0,0,13.3-13.7-1.9-31.8c-15.2-18-28.7,8.6-28.7,8.6s-13.6-11.3-20.9-7.5s-9.7,11.9-9.7,11.9
				s-10.5-6.3-17.1-2.1s-11.9,8.8-11.9,8.8s6.5-13.3-8.4-21.1c-14.9-7.8-22.8,7.3-23.6,14.9c-0.8,7.6-0.8,7.6-0.8,7.6
				s-14.7-7.8-18.4,0.4c-3.7,8.2-3.7,8.2-3.7,8.2s-12.1-11-22-6.1c-10,4.9-19.7,10.2-19.7,10.2s10-36.7-10.8-35.9
				c-20.9,0.8-16.3,28.7-16.3,28.7s-6.2-9.7-17.4,0.1c-11.2,9.8-8.6,19.5-8.6,19.5l268.8-7C1096.4,1025,1084.5,1000.1,1067.4,1017.4
				z"/>
		</g>
	</g>
	<g>
		<ellipse class="st2" cx="760.3" cy="1056.3" rx="535.4" ry="38"/>
	</g>
	<g>
		<g>
			<g>
				<rect x="495.8" y="1001.4" class="st6" width="2.7" height="13.5"/>
				<rect x="505.3" y="1001.4" class="st6" width="2.7" height="13.5"/>
				<rect x="514.7" y="1001.4" class="st6" width="2.7" height="13.5"/>
				<rect x="524.1" y="1001.4" class="st6" width="2.7" height="13.5"/>
				<rect x="533.6" y="1001.4" class="st6" width="2.7" height="13.5"/>
				<rect x="543" y="1001.4" class="st6" width="2.7" height="13.5"/>
				<rect x="552.4" y="1001.4" class="st6" width="2.7" height="13.5"/>
				<rect x="561.9" y="1001.4" class="st6" width="2.7" height="13.5"/>
				<rect x="571.3" y="1001.4" class="st6" width="2.7" height="13.5"/>
				<rect x="580.7" y="1001.4" class="st6" width="2.7" height="13.5"/>
				<rect x="590.2" y="1001.4" class="st6" width="2.7" height="13.5"/>
				<rect x="599.6" y="1001.4" class="st6" width="2.7" height="13.5"/>
			</g>
			<g>
				<g>
					<rect x="526.8" y="1000.5" class="st7" width="6.8" height="15.5"/>
				</g>
				<g>
					<rect x="555.1" y="1000.5" class="st7" width="6.8" height="15.5"/>
				</g>
				<g>
					<rect x="545.7" y="1000.5" class="st7" width="6.8" height="15.5"/>
				</g>
				<g>
					<rect x="517.4" y="1000.5" class="st7" width="6.8" height="15.5"/>
				</g>
				<g>
					<rect x="507.9" y="1000.5" class="st7" width="6.8" height="15.5"/>
				</g>
				<g>
					<rect x="498.5" y="1000.5" class="st7" width="6.8" height="15.5"/>
				</g>
				<g>
					<rect x="536.2" y="1000.5" class="st7" width="6.8" height="15.5"/>
				</g>
				<g>
					<path class="st7" d="M495.8,1000.5H493c-2.1,0-3.8,2.1-3.8,4.8v5.9c0,2.6,1.7,4.8,3.8,4.8h2.9V1000.5z"/>
				</g>
				<g>
					<rect x="592.8" y="1000.5" class="st7" width="6.8" height="15.5"/>
				</g>
				<g>
					<path class="st7" d="M605.5,1000.5h-3.2v15.5h3.2c2.1,0,3.8-2.1,3.8-4.8v-5.9C609.3,1002.6,607.6,1000.5,605.5,1000.5z"/>
				</g>
				<g>
					<rect x="583.4" y="1000.5" class="st7" width="6.8" height="15.5"/>
				</g>
				<g>
					<rect x="564.5" y="1000.5" class="st7" width="6.8" height="15.5"/>
				</g>
				<g>
					<rect x="574" y="1000.5" class="st7" width="6.8" height="15.5"/>
				</g>
			</g>
		</g>
		<g>
			<g>
				<rect x="508.5" y="971.5" class="st6" width="2.7" height="13.5"/>
				<rect x="517.9" y="971.5" class="st6" width="2.7" height="13.5"/>
				<rect x="527.3" y="971.5" class="st6" width="2.7" height="13.5"/>
				<rect x="536.8" y="971.5" class="st6" width="2.7" height="13.5"/>
				<rect x="546.2" y="971.5" class="st6" width="2.7" height="13.5"/>
				<rect x="555.6" y="971.5" class="st6" width="2.7" height="13.5"/>
				<rect x="565.1" y="971.5" class="st6" width="2.7" height="13.5"/>
				<rect x="574.5" y="971.5" class="st6" width="2.7" height="13.5"/>
				<rect x="583.9" y="971.5" class="st6" width="2.7" height="13.5"/>
				<rect x="593.4" y="971.5" class="st6" width="2.7" height="13.5"/>
				<rect x="602.8" y="971.5" class="st6" width="2.7" height="13.5"/>
				<rect x="612.2" y="971.5" class="st6" width="2.7" height="13.5"/>
			</g>
			<g>
				<g>
					<rect x="539.4" y="970.5" class="st7" width="6.8" height="15.5"/>
				</g>
				<g>
					<rect x="567.7" y="970.5" class="st7" width="6.8" height="15.5"/>
				</g>
				<g>
					<rect x="558.3" y="970.5" class="st7" width="6.8" height="15.5"/>
				</g>
				<g>
					<rect x="530" y="970.5" class="st7" width="6.8" height="15.5"/>
				</g>
				<g>
					<rect x="520.6" y="970.5" class="st7" width="6.8" height="15.5"/>
				</g>
				<g>
					<rect x="511.1" y="970.5" class="st7" width="6.8" height="15.5"/>
				</g>
				<g>
					<rect x="548.9" y="970.5" class="st7" width="6.8" height="15.5"/>
				</g>
				<g>
					<path class="st7" d="M508.5,970.5h-2.9c-2.1,0-3.8,2.1-3.8,4.8v5.9c0,2.6,1.7,4.8,3.8,4.8h2.9V970.5z"/>
				</g>
				<g>
					<rect x="605.5" y="970.5" class="st7" width="6.8" height="15.5"/>
				</g>
				<g>
					<path class="st7" d="M618.1,970.5h-3.2V986h3.2c2.1,0,3.8-2.1,3.8-4.8v-5.9C622,972.7,620.3,970.5,618.1,970.5z"/>
				</g>
				<g>
					<rect x="596.1" y="970.5" class="st7" width="6.8" height="15.5"/>
				</g>
				<g>
					<rect x="577.2" y="970.5" class="st7" width="6.8" height="15.5"/>
				</g>
				<g>
					<rect x="586.6" y="970.5" class="st7" width="6.8" height="15.5"/>
				</g>
			</g>
		</g>
		<g>
			<g>
				<rect x="510.2" y="1015.9" class="st6" width="2.7" height="13.5"/>
				<rect x="519.6" y="1015.9" class="st6" width="2.7" height="13.5"/>
				<rect x="529" y="1015.9" class="st6" width="2.7" height="13.5"/>
				<rect x="538.5" y="1015.9" class="st6" width="2.7" height="13.5"/>
				<rect x="547.9" y="1015.9" class="st6" width="2.7" height="13.5"/>
				<rect x="557.3" y="1015.9" class="st6" width="2.7" height="13.5"/>
				<rect x="566.8" y="1015.9" class="st6" width="2.7" height="13.5"/>
				<rect x="576.2" y="1015.9" class="st6" width="2.7" height="13.5"/>
				<rect x="585.6" y="1015.9" class="st6" width="2.7" height="13.5"/>
				<rect x="595.1" y="1015.9" class="st6" width="2.7" height="13.5"/>
				<rect x="604.5" y="1015.9" class="st6" width="2.7" height="13.5"/>
				<rect x="613.9" y="1015.9" class="st6" width="2.7" height="13.5"/>
			</g>
			<g>
				<g>
					<g>
						<rect x="541.1" y="1014.9" class="st8" width="6.8" height="15.5"/>
					</g>
					<g>
						<rect x="569.4" y="1014.9" class="st8" width="6.8" height="15.5"/>
					</g>
					<g>
						<rect x="560" y="1014.9" class="st8" width="6.8" height="15.5"/>
					</g>
					<g>
						<rect x="531.7" y="1014.9" class="st8" width="6.8" height="15.5"/>
					</g>
					<g>
						<rect x="522.3" y="1014.9" class="st8" width="6.8" height="15.5"/>
					</g>
					<g>
						<rect x="512.8" y="1014.9" class="st8" width="6.8" height="15.5"/>
					</g>
					<g>
						<rect x="550.6" y="1014.9" class="st8" width="6.8" height="15.5"/>
					</g>
					<g>
						<path class="st8" d="M510.2,1014.9h-2.9c-2.1,0-3.8,2.1-3.8,4.8v5.9c0,2.6,1.7,4.8,3.8,4.8h2.9V1014.9z"/>
					</g>
					<g>
						<rect x="607.2" y="1014.9" class="st8" width="6.8" height="15.5"/>
					</g>
					<g>
						<path class="st8" d="M619.8,1014.9h-3.2v15.5h3.2c2.1,0,3.8-2.1,3.8-4.8v-5.9C623.7,1017.1,622,1014.9,619.8,1014.9z"/>
					</g>
					<g>
						<rect x="597.7" y="1014.9" class="st8" width="6.8" height="15.5"/>
					</g>
					<g>
						<rect x="578.9" y="1014.9" class="st8" width="6.8" height="15.5"/>
					</g>
					<g>
						<rect x="588.3" y="1014.9" class="st8" width="6.8" height="15.5"/>
					</g>
				</g>
			</g>
		</g>
		<g>
			<g>
				<rect x="514.7" y="986" class="st6" width="2.7" height="13.5"/>
				<rect x="524.1" y="986" class="st6" width="2.7" height="13.5"/>
				<rect x="533.6" y="986" class="st6" width="2.7" height="13.5"/>
				<rect x="543" y="986" class="st6" width="2.7" height="13.5"/>
				<rect x="552.4" y="986" class="st6" width="2.7" height="13.5"/>
				<rect x="561.9" y="986" class="st6" width="2.7" height="13.5"/>
				<rect x="571.3" y="986" class="st6" width="2.7" height="13.5"/>
				<rect x="580.7" y="986" class="st6" width="2.7" height="13.5"/>
				<rect x="590.2" y="986" class="st6" width="2.7" height="13.5"/>
				<rect x="599.6" y="986" class="st6" width="2.7" height="13.5"/>
				<rect x="609.1" y="986" class="st6" width="2.7" height="13.5"/>
				<rect x="618.5" y="986" class="st6" width="2.7" height="13.5"/>
			</g>
			<g>
				<g>
					<g>
						<rect x="545.7" y="985" class="st8" width="6.8" height="15.5"/>
					</g>
					<g>
						<rect x="574" y="985" class="st8" width="6.8" height="15.5"/>
					</g>
					<g>
						<rect x="564.5" y="985" class="st8" width="6.8" height="15.5"/>
					</g>
					<g>
						<rect x="536.2" y="985" class="st8" width="6.8" height="15.5"/>
					</g>
					<g>
						<rect x="526.8" y="985" class="st8" width="6.8" height="15.5"/>
					</g>
					<g>
						<rect x="517.4" y="985" class="st8" width="6.8" height="15.5"/>
					</g>
					<g>
						<rect x="555.1" y="985" class="st8" width="6.8" height="15.5"/>
					</g>
					<g>
						<path class="st8" d="M514.7,985h-2.9c-2.1,0-3.8,2.1-3.8,4.8v5.9c0,2.6,1.7,4.8,3.8,4.8h2.9V985z"/>
					</g>
					<g>
						<rect x="611.7" y="985" class="st8" width="6.8" height="15.5"/>
					</g>
					<g>
						<path class="st8" d="M624.4,985h-3.2v15.5h3.2c2.1,0,3.8-2.1,3.8-4.8v-5.9C628.2,987.1,626.5,985,624.4,985z"/>
					</g>
					<g>
						<rect x="602.3" y="985" class="st8" width="6.8" height="15.5"/>
					</g>
					<g>
						<rect x="583.4" y="985" class="st8" width="6.8" height="15.5"/>
					</g>
					<g>
						<rect x="592.8" y="985" class="st8" width="6.8" height="15.5"/>
					</g>
				</g>
			</g>
		</g>
		<g>
			<g>
				<path class="st9" d="M589,917.5c1.9,8.2,1.5,16.4-0.9,23.9c-0.7,2.4-1.7,4.8-2.8,7c-2.5,5-5.9,9.5-10.1,13.3
					c-0.7,0.6-1.3,1.2-2,1.8c-2.2,1.8-4.5,3.3-7,4.6c-2.7,1.5-5.6,2.7-8.7,3.6c-0.9,0.3-1.8,0.5-2.7,0.7c-24.7,5.7-49.3-9.7-55-34.3
					c-2-8.8-1.4-17.6,1.4-25.6c1.1-3.2,2.6-6.2,4.3-9c1.2-1.9,2.6-3.8,4.1-5.5c0.8-1,1.7-1.9,2.5-2.8c3.6-3.6,7.8-6.6,12.6-8.9
					c2.3-1.1,4.8-2,7.3-2.7c0.7-0.2,1.4-0.4,2.1-0.5C558.6,877.4,583.3,892.8,589,917.5z"/>
			</g>
			<g>
				<circle class="st10" cx="544.3" cy="927.8" r="40.4"/>
			</g>
			<g>
				<circle class="st8" cx="544.3" cy="927.8" r="38.2"/>
			</g>
			<g class="st11">
				<path class="st10" d="M580.7,939.4c-4,12.4-14.2,22.5-27.8,25.6c-20.6,4.8-41.1-8-45.9-28.6c-3.3-14.3,1.9-28.7,12.3-37.6
					c-2,6.3-2.4,13.3-0.8,20.2c4.8,20.6,25.3,33.4,45.9,28.6C570.7,946.2,576.2,943.3,580.7,939.4z"/>
			</g>
			<g>
				<path class="st12" d="M546.4,946.8v5.8h-3.3v-5.8c-5-0.3-9.7-2-12.4-4.4l1.9-4c2.4,2.2,6.4,3.8,10.5,4.1v-11.8
					c-5.6-1.4-11.5-3.2-11.5-10.1c0-5,3.6-9.4,11.5-10.1v-5.8h3.3v5.8c3.8,0.2,7.6,1.3,10.3,3.1l-1.7,4.1c-2.7-1.7-5.8-2.7-8.7-2.8
					v11.9c5.7,1.4,11.8,3.1,11.8,10.1C558.2,941.8,554.5,946.1,546.4,946.8z M543.2,925.8v-11c-4.5,0.6-6.5,2.8-6.5,5.5
					C536.7,923.5,539.5,924.9,543.2,925.8z M553.2,937c0-3.3-3.1-4.5-6.8-5.5v10.9C551.2,942,553.2,939.8,553.2,937z"/>
			</g>
		</g>
	</g>
	<g>
		<g>
			<g>
				<rect x="941.5" y="1002" class="st6" width="2.6" height="13.2"/>
				<rect x="950.8" y="1002" class="st6" width="2.6" height="13.2"/>
				<rect x="960" y="1002" class="st6" width="2.6" height="13.2"/>
				<rect x="969.3" y="1002" class="st6" width="2.6" height="13.2"/>
				<rect x="978.6" y="1002" class="st6" width="2.6" height="13.2"/>
				<rect x="987.8" y="1002" class="st6" width="2.6" height="13.2"/>
				<rect x="997.1" y="1002" class="st6" width="2.6" height="13.2"/>
				<rect x="1006.4" y="1002" class="st6" width="2.6" height="13.2"/>
				<rect x="1015.6" y="1002" class="st6" width="2.6" height="13.2"/>
				<rect x="1024.9" y="1002" class="st6" width="2.6" height="13.2"/>
				<rect x="1034.2" y="1002" class="st6" width="2.6" height="13.2"/>
				<rect x="1043.4" y="1002" class="st6" width="2.6" height="13.2"/>
			</g>
			<g>
				<g>
					<rect x="971.9" y="1001" class="st7" width="6.6" height="15.2"/>
				</g>
				<g>
					<rect x="999.7" y="1001" class="st7" width="6.6" height="15.2"/>
				</g>
				<g>
					<rect x="990.5" y="1001" class="st7" width="6.6" height="15.2"/>
				</g>
				<g>
					<rect x="962.7" y="1001" class="st7" width="6.6" height="15.2"/>
				</g>
				<g>
					<rect x="953.4" y="1001" class="st7" width="6.6" height="15.2"/>
				</g>
				<g>
					<rect x="944.1" y="1001" class="st7" width="6.6" height="15.2"/>
				</g>
				<g>
					<rect x="981.2" y="1001" class="st7" width="6.6" height="15.2"/>
				</g>
				<g>
					<path class="st7" d="M941.5,1001h-2.8c-2.1,0-3.8,2.1-3.8,4.7v5.8c0,2.6,1.7,4.7,3.8,4.7h2.8V1001z"/>
				</g>
				<g>
					<rect x="1036.8" y="1001" class="st7" width="6.6" height="15.2"/>
				</g>
				<g>
					<path class="st7" d="M1049.2,1001h-3.2v15.2h3.2c2.1,0,3.8-2.1,3.8-4.7v-5.8C1053,1003.1,1051.3,1001,1049.2,1001z"/>
				</g>
				<g>
					<rect x="1027.5" y="1001" class="st7" width="6.6" height="15.2"/>
				</g>
				<g>
					<rect x="1009" y="1001" class="st7" width="6.6" height="15.2"/>
				</g>
				<g>
					<rect x="1018.3" y="1001" class="st7" width="6.6" height="15.2"/>
				</g>
			</g>
		</g>
		<g>
			<g>
				<rect x="955.6" y="1016.2" class="st6" width="2.6" height="13.2"/>
				<rect x="964.9" y="1016.2" class="st6" width="2.6" height="13.2"/>
				<rect x="974.1" y="1016.2" class="st6" width="2.6" height="13.2"/>
				<rect x="983.4" y="1016.2" class="st6" width="2.6" height="13.2"/>
				<rect x="992.7" y="1016.2" class="st6" width="2.6" height="13.2"/>
				<rect x="1001.9" y="1016.2" class="st6" width="2.6" height="13.2"/>
				<rect x="1011.2" y="1016.2" class="st6" width="2.6" height="13.2"/>
				<rect x="1020.5" y="1016.2" class="st6" width="2.6" height="13.2"/>
				<rect x="1029.7" y="1016.2" class="st6" width="2.6" height="13.2"/>
				<rect x="1039" y="1016.2" class="st6" width="2.6" height="13.2"/>
				<rect x="1048.3" y="1016.2" class="st6" width="2.6" height="13.2"/>
				<rect x="1057.5" y="1016.2" class="st6" width="2.6" height="13.2"/>
			</g>
			<g>
				<g>
					<g>
						<rect x="986" y="1015.2" class="st8" width="6.6" height="15.2"/>
					</g>
					<g>
						<rect x="1013.8" y="1015.2" class="st8" width="6.6" height="15.2"/>
					</g>
					<g>
						<rect x="1004.5" y="1015.2" class="st8" width="6.6" height="15.2"/>
					</g>
					<g>
						<rect x="976.7" y="1015.2" class="st8" width="6.6" height="15.2"/>
					</g>
					<g>
						<rect x="967.5" y="1015.2" class="st8" width="6.6" height="15.2"/>
					</g>
					<g>
						<rect x="958.2" y="1015.2" class="st8" width="6.6" height="15.2"/>
					</g>
					<g>
						<rect x="995.3" y="1015.2" class="st8" width="6.6" height="15.2"/>
					</g>
					<g>
						<path class="st8" d="M955.6,1015.2h-2.8c-2.1,0-3.8,2.1-3.8,4.7v5.8c0,2.6,1.7,4.7,3.8,4.7h2.8V1015.2z"/>
					</g>
					<g>
						<rect x="1050.9" y="1015.2" class="st8" width="6.6" height="15.2"/>
					</g>
					<g>
						<path class="st8" d="M1063.3,1015.2h-3.2v15.2h3.2c2.1,0,3.8-2.1,3.8-4.7v-5.8C1067.1,1017.3,1065.4,1015.2,1063.3,1015.2z"/>
					</g>
					<g>
						<rect x="1041.6" y="1015.2" class="st8" width="6.6" height="15.2"/>
					</g>
					<g>
						<rect x="1023.1" y="1015.2" class="st8" width="6.6" height="15.2"/>
					</g>
					<g>
						<rect x="1032.3" y="1015.2" class="st8" width="6.6" height="15.2"/>
					</g>
				</g>
			</g>
		</g>
		<g>
			<g>
				<path class="st9" d="M1057.7,948c1.9,8.1,1.4,16.1-0.9,23.5c-0.7,2.4-1.7,4.7-2.8,6.9c-2.5,4.9-5.8,9.4-10,13.1
					c-0.6,0.6-1.3,1.2-2,1.7c-2.1,1.7-4.4,3.3-6.9,4.6c-2.7,1.5-5.5,2.7-8.6,3.5c-0.9,0.3-1.8,0.5-2.7,0.7
					c-24.2,5.6-48.4-9.5-54-33.7c-2-8.7-1.4-17.3,1.4-25.1c1.1-3.1,2.5-6.1,4.2-8.8c1.2-1.9,2.5-3.7,4-5.4c0.8-1,1.6-1.9,2.5-2.7
					c3.5-3.5,7.7-6.5,12.4-8.7c2.3-1.1,4.7-2,7.2-2.7c0.7-0.2,1.4-0.4,2-0.5C1027.9,908.7,1052.1,923.8,1057.7,948z"/>
			</g>
			<g>
				<circle class="st10" cx="1013.8" cy="958.2" r="39.6"/>
			</g>
			<g>
				<circle class="st8" cx="1013.8" cy="958.2" r="37.5"/>
			</g>
			<g class="st11">
				<path class="st10" d="M1049.6,969.6c-3.9,12.2-13.9,22.1-27.3,25.2c-20.2,4.7-40.4-7.9-45-28.1c-3.3-14.1,1.9-28.2,12.1-36.9
					c-2,6.2-2.4,13-0.8,19.9c4.7,20.2,24.8,32.8,45,28.1C1039.7,976.3,1045.1,973.4,1049.6,969.6z"/>
			</g>
			<g>
				<path class="st12" d="M1015.9,976.8v5.6h-3.2v-5.6c-4.9-0.2-9.5-1.9-12.1-4.3l1.8-3.9c2.3,2.1,6.2,3.7,10.3,4V961
					c-5.5-1.3-11.3-3.1-11.3-9.9c0-4.9,3.5-9.2,11.3-9.9v-5.7h3.2v5.6c3.7,0.1,7.5,1.2,10.1,3l-1.6,4c-2.7-1.7-5.7-2.6-8.5-2.8V957
					c5.6,1.4,11.6,3,11.6,9.9C1027.5,971.9,1023.8,976.2,1015.9,976.8z M1012.7,956.2v-10.8c-4.4,0.5-6.4,2.8-6.4,5.4
					C1006.3,954,1009.1,955.3,1012.7,956.2z M1022.6,967.2c0-3.2-3-4.4-6.7-5.4v10.7C1020.5,972.1,1022.6,969.9,1022.6,967.2z"/>
			</g>
		</g>
	</g>
	<g>
		<g>
			<g>
				<path class="st13" d="M967.5,620.3c1.7-3.1,3.3-4.7,4.3-5.6c0.5-0.4,0.4-1.2-0.1-1.5l-10.6-5.9c1.3-4.3,1.8-8.6,1.5-12.9
					l11.7-3.3c0.6-0.2,0.9-0.9,0.5-1.4c-0.8-1-2-3-2.9-6.4c-1-3.4-1-5.7-0.9-7c0.1-0.6-0.5-1.1-1.2-1l-11.6,3.3
					c-2-3.8-4.7-7.3-8.1-10.2l5.9-10.6c0.3-0.6,0-1.3-0.7-1.4c-1.3-0.2-3.5-0.7-6.6-2.4c-3.1-1.7-4.7-3.3-5.5-4.3
					c-0.4-0.5-1.2-0.4-1.5,0.1l-5.9,10.6c-4.3-1.3-8.6-1.7-12.9-1.5l-3.3-11.7c-0.2-0.6-0.9-0.9-1.4-0.5c-1,0.8-3,2-6.4,3
					c-3.4,1-5.7,1-7,0.9c-0.6-0.1-1.1,0.5-1,1.2l3.3,11.7c-3.8,2.1-7.2,4.8-10.1,8.1l-10.6-5.9c-0.6-0.3-1.3,0-1.4,0.7
					c-0.2,1.3-0.7,3.5-2.4,6.6c-1.7,3.1-3.3,4.7-4.3,5.6c-0.5,0.4-0.4,1.2,0.1,1.5l10.7,6c-1.2,4.2-1.7,8.6-1.4,12.9l-11.8,3.4
					c-0.6,0.2-0.9,0.9-0.5,1.4c0.8,1,2,3,2.9,6.4c1,3.4,1,5.7,0.9,7c-0.1,0.6,0.5,1.1,1.2,1l11.8-3.4c2,3.8,4.7,7.2,8,10.1l-6,10.8
					c-0.3,0.6,0,1.3,0.7,1.4c1.3,0.2,3.5,0.7,6.6,2.4c3.1,1.7,4.7,3.3,5.5,4.3c0.4,0.5,1.2,0.4,1.5-0.1l6-10.8
					c4.2,1.3,8.5,1.7,12.8,1.5l3.4,11.9c0.2,0.6,0.9,0.9,1.4,0.5c1-0.8,3-2,6.4-3c3.4-1,5.7-1,7-0.9c0.6,0.1,1.1-0.5,1-1.2
					l-3.4-11.8c3.8-2,7.2-4.7,10.1-8l10.7,6c0.6,0.3,1.3,0,1.4-0.7C965.3,625.6,965.8,623.4,967.5,620.3z M913.4,617.7
					c-11.7-6.5-15.9-21.4-9.4-33.1c6.5-11.7,21.3-16,33-9.4c11.7,6.5,15.9,21.4,9.4,33.1C939.8,620,925,624.2,913.4,617.7z"/>
			</g>
		</g>
		<g>
			<g>
				<path class="st14" d="M969.5,619.5c1.7-3.1,3.3-4.7,4.3-5.6c0.5-0.4,0.4-1.2-0.1-1.5l-10.6-5.9c1.3-4.3,1.8-8.6,1.5-12.9
					l11.7-3.3c0.6-0.2,0.9-0.9,0.5-1.4c-0.8-1-2-3-2.9-6.4c-1-3.4-1-5.7-0.9-7c0.1-0.6-0.5-1.1-1.2-1l-11.6,3.3
					c-2-3.8-4.7-7.3-8.1-10.2L958,557c0.3-0.6,0-1.3-0.7-1.4c-1.3-0.2-3.5-0.7-6.6-2.4c-3.1-1.7-4.7-3.3-5.5-4.3
					c-0.4-0.5-1.2-0.4-1.5,0.1l-5.9,10.6c-4.3-1.3-8.6-1.7-12.9-1.5l-3.3-11.7c-0.2-0.6-0.9-0.9-1.4-0.5c-1,0.8-3,2-6.4,3
					c-3.4,1-5.7,1-7,0.9c-0.6-0.1-1.1,0.5-1,1.2l3.3,11.7c-3.8,2.1-7.2,4.8-10.1,8.1l-10.6-5.9c-0.6-0.3-1.3,0-1.4,0.7
					c-0.2,1.3-0.7,3.5-2.4,6.6s-3.3,4.7-4.3,5.6c-0.5,0.4-0.4,1.2,0.1,1.5l10.7,6c-1.2,4.2-1.7,8.6-1.4,12.9l-11.8,3.4
					c-0.6,0.2-0.9,0.9-0.5,1.4c0.8,1,2,3,2.9,6.4c1,3.4,1,5.7,0.9,7c-0.1,0.6,0.5,1.1,1.2,1l11.8-3.4c2,3.8,4.7,7.2,8,10.1l-6,10.8
					c-0.3,0.6,0,1.3,0.7,1.4c1.3,0.2,3.5,0.7,6.6,2.4c3.1,1.7,4.7,3.3,5.5,4.3c0.4,0.5,1.2,0.4,1.5-0.1l6-10.8
					c4.2,1.3,8.5,1.7,12.8,1.5l3.4,11.9c0.2,0.6,0.9,0.9,1.4,0.5c1-0.8,3-2,6.4-3c3.4-1,5.7-1,7-0.9c0.6,0.1,1.1-0.5,1-1.2
					l-3.4-11.8c3.8-2,7.2-4.7,10.1-8l10.7,6c0.6,0.3,1.3,0,1.4-0.7C967.3,624.8,967.8,622.6,969.5,619.5z M915.3,617
					c-11.7-6.5-15.9-21.4-9.4-33.1c6.5-11.7,21.3-16,33-9.4c11.7,6.5,15.9,21.4,9.4,33.1C941.8,619.3,927,623.5,915.3,617z"/>
			</g>
		</g>
		<g>
			<g>
				<path class="st13" d="M940.9,570.8c-13.7-7.7-31.1-2.7-38.8,11.1c-7.7,13.8-2.7,31.2,11,38.9c13.8,7.7,31.1,2.7,38.8-11.1
					C959.6,595.9,954.7,578.5,940.9,570.8z M915.3,617c-11.7-6.5-15.9-21.4-9.4-33.1c6.5-11.7,21.3-16,33-9.4
					c11.7,6.5,15.9,21.4,9.4,33.1C941.8,619.3,927,623.5,915.3,617z"/>
			</g>
		</g>
		<g>
			<g>
				<path class="st14" d="M938.9,574.4c-11.7-6.5-26.4-2.3-33,9.4c-6.5,11.7-2.3,26.6,9.4,33.1c11.7,6.5,26.5,2.3,33-9.4
					C954.8,595.8,950.6,581,938.9,574.4z M918.6,611c-8.4-4.7-11.4-15.3-6.7-23.7c4.7-8.4,15.2-11.4,23.6-6.8
					c8.4,4.7,11.4,15.3,6.7,23.7C937.6,612.7,927,615.7,918.6,611z"/>
			</g>
		</g>
	</g>
	<g>
		<g>
			<ellipse class="st14" cx="427.9" cy="1051.3" rx="110.2" ry="14.1"/>
		</g>
		<g>
			<path class="st15" d="M358.3,990.4c0,0-18.1,38.3-6.7,46.7c11.5,8.4,69.5,15.5,74.5,11.5c5.1-3.9,4.5-13.2-1.7-20.5
				c-6.2-7.3-34.1-27.7-34.1-27.7L358.3,990.4z"/>
		</g>
		<g>
			<path class="st15" d="M476.1,998.2c0,0-8.9,41.4,4.2,47c13.1,5.6,71.2-0.9,75.2-5.9c4-5,1.3-13.9-6.4-19.6
				c-7.7-5.7-39.5-19.1-39.5-19.1L476.1,998.2z"/>
		</g>
		<g>
			<path class="st16" d="M518.2,847.7c0,8.4-1.1,149-6.8,152.7c-3.1,2.1-14.3,5.2-23.9,5.7c-7.8,0.4-14.5-0.8-15-5.7
				c-1.1-10.9-6.5-140.4-6.6-146.5c-0.1-6.2-32.5-67.6-32.1-86.7c0.3-12.9,19.1-39.1,34.7-50.4c7.4-5.4,14.1-7.4,17.6-2.9
				C486.1,713.8,518.2,839.3,518.2,847.7z"/>
		</g>
		<g class="st17">
			<path class="st15" d="M487.6,1006.1c-7.8,0.4-14.5-0.8-15-5.7c-1.1-10.9-6.5-140.4-6.6-146.5c-0.1-6.2-32.5-67.6-32.1-86.7
				c0.3-12.9,19.1-39.1,34.7-50.4l0.7,8.7c0,0-5.6,76.9,2.8,100.2c8.4,23.2,12.9,12,15.2,49.1C488.9,902.3,488.1,972,487.6,1006.1z"
				/>
		</g>
		<g>
			<path class="st16" d="M457.1,723.4c0,0-1,11.4-2.6,27.1c-3,31-7.7,78.7-9.7,88.3c-2.9,14.4-45.2,157.1-50.3,162.6
				s-34.2-0.8-41.8-7.2c-7.6-6.3,23.6-134.3,24.9-143.1c0.9-6.4,0.5-14.2,0.2-31.3c-0.1-6.5-0.2-14.3-0.2-24
				c0-35,11.4-81.9,11.4-81.9L457.1,723.4z"/>
		</g>
		<g class="st18">
			<path class="st13" d="M367.2,1000.4l-3.3-0.8c0.4-1.4,36.6-141.4,38.8-159.7c2.1-18.4,13.5-121.1,13.6-122.2l3.4,0.4
				c-0.1,1-11.5,103.8-13.6,122.2C403.9,858.8,368.7,994.7,367.2,1000.4z"/>
		</g>
		<g class="st17">
			<path class="st15" d="M457.1,723.4c0,0-1,11.4-2.6,27.1c-7.4,4.5-15.7,11.2-16.1,18.6c-0.8,13.5,0.9,33-4.6,36
				c-5.1,2.7-29.1,33-55.9,14.6c-0.1-6.5-0.2-14.3-0.2-24c0-35,11.4-81.9,11.4-81.9L457.1,723.4z"/>
		</g>
		<g>
			<path class="st19" d="M445.4,506.4c0,0,21-11.9,15.9-30.1s-23.1-23.2-37.7-8.9c-14.6,14.3-14.6,18.5-14.6,18.5
				s-21.5-5.9-31.9,10.1c-10.4,16,2.5,41,13,44.4c10.5,3.5,10.5,3.5,10.5,3.5s2,15.1,11.1,13.3c9.1-1.7,10.6-11.1,10.6-11.1
				L445.4,506.4z"/>
		</g>
		<path class="st20" d="M445.4,506.4c0,0,9.6,17.5,5.2,28.9c-4.4,11.4-17.3,13-17.3,13l9.5,19.4c0,0,1.4,19.1-4.3,18.4
			s-16.3-7.3-16.3-7.3l-5.1-28.1c0,0-4.1-4.2-6.9-6.8c-2.8-2.6-3.8-5.5-3.8-5.5s-7.4-2-7.9-8.1c-0.5-6.2,3.2-9.6,9.4-6.9
			s9.2,7.7,9.2,4.4s-1.5-10.4-1-12.8C416.5,512.4,440.2,501,445.4,506.4z"/>
		<path class="st20" d="M524.9,489.6c0,0,2.5-12.7,0-18.9s-1.7-13.8,3.7-16c5.3-2.3,21.4,0.6,22,9.6c0.6,9-5.3,9.6-6.5,13.8
			s-2,14.4-2,14.4L524.9,489.6z"/>
		<g>
			<path class="st13" d="M547,491.7c0,2.5-13.1,71.8-16.5,76.9c-3.4,5.1-43.9,27-43.9,27s5.9,76,4.6,101.3
				c-1.3,25.3,2.1,27-3.4,29.6c-4.7,2.2-51.6,6.5-74.8,4.8c-4.1-0.3-7.4-0.8-9.6-1.4c-2.9-0.9-5.3-1.7-7.2-2.4
				c-8.1-3.3-8.2-6.1-7.2-13.6c0.3-2.1,0.5-6.8,0.7-12.7c0.4-13.6,0.5-33.8,0.6-45c0-5,0-8.2,0-8.2l-5.5-57.8
				c0,0,17.3-13.9,24.5-16.9c7.2-3,7.2-3,7.2-3s18.6,16,23.6,7.2c5.1-8.9,2.5-15.6,2.5-15.6s56.6-15.2,60.4-23.6
				c3.8-8.4,11.8-52.4,17.3-51.5C525.9,487.5,547,489.2,547,491.7z"/>
		</g>
		<g class="st11">
			<path class="st21" d="M441.2,680.5L428,709.3l-14.9,22.1c-4.1-0.3-7.4-0.8-9.6-1.4c-2.9-0.9-5.3-1.7-7.2-2.4
				c6.7-3.5,15.2-8.4,16.8-11.2c1.9-3.3-13.4-10.7-23.4-15.1c0.4-13.6,0.5-33.8,0.6-45c6.7-28,16-57.8,22.7-45.7
				c0,0-3.5,44.1,9.5,56.1C435.4,678.5,441.2,680.5,441.2,680.5z"/>
		</g>
		<g>
			<path class="st16" d="M459.8,707.4c0.2,5-8.4,18-10.2,18c-1.8,0-9.8-8.7-10.4-11.8c-0.6-3.2-0.3-9.1-0.7-27.2
				c-0.4-18.2,1.5-90.2,1.5-90.2s5.7-9.4,7.8,1.2c0.2,1,0.5,2.7,0.8,5c2.2,16,6.8,59.9,9.4,85.7
				C459.1,698.6,459.8,706.1,459.8,707.4z"/>
		</g>
		<g class="st17">
			<path class="st15" d="M459.8,707.4c0.2,5-8.4,18-10.2,18c-1.8,0-9.8-8.7-10.4-11.8c-0.6-3.2-0.3-9.1-0.7-27.2
				c-0.4-18.2,1.5-90.2,1.5-90.2s5.7-9.4,7.8,1.2c0.2,1,0.5,2.7,0.8,5c-2.9,1.8-5.9,4.4-6.1,7.7c-0.4,6.5-0.6,67.8,2.3,70.7
				c1.7,1.7,8,4.8,13.2,7.2C459.1,698.6,459.8,706.1,459.8,707.4z"/>
		</g>
		<g>
			<path class="st16" d="M434.1,581.7c0,0,3,14.1,5.7,16.3c2.7,2.1,7.8,2.8,8-0.5c0.2-3.4,1.1-11.3,0-15.7
				C446.8,577.2,433.3,578.2,434.1,581.7z"/>
		</g>
		<g>
			<path class="st14" d="M416.6,570.3l-8.9,3.8c0,0,21,24.1,23.5,22c2.5-2.1,7.2-16.6,7.2-16.6s12,6.3,13.3,4.8s0.8-11.6,0-13.9
				c-0.8-2.3-8.9-8.4-8.9-8.4s-2.1,13.5-4.4,15S419.9,572,416.6,570.3z"/>
		</g>
		<g>
			<path class="st22" d="M515.7,656.3c-6.8,7.3-24.7,8.7-24.7,8.7s-67,91.2-67.9,93.2c-0.8,2,7.6,12.7,4.8,27.9
				c-2.8,15.2-21.7,20.8-27.6,18.6c-5.9-2.3,9-19.7-2.3-27.1c-11.3-7.4-19.7-1.3-25.9-0.2c-6.2,1.1-9.8-3.1-2.2-20.3
				c7.6-17.2,34.9-9.9,34.9-9.9l25.7-30.4l8.4-10c0,0,6.1-10.6,12.7-22.2c7.6-13.4,15.7-28.1,15.7-29.2c0-2-5.1-8.2-5.1-22.8
				c0-14.6,13.5-22,17.2-25c3.7-3,2.3,0.8,2.3,5.3c0,4.5-0.3,17.5,11,21.4c11.3,3.9,29.8-4.8,31.2-2
				C525.2,635.2,522.4,649,515.7,656.3z"/>
		</g>
		<g class="st23">
			<path class="st14" d="M490.9,665c0,0-67,91.2-67.9,93.2c0,0-6.5-1.3-4.8-4.6s25.2-26,20.2-30.1c-2.4-2-5.5-4.5-8-6.6l8.4-10
				c0,0,6.1-10.6,12.7-22.2c3.5,1.1,10.3,2.6,14.5-0.9c5.9-4.9,12.7-25.7,14.8-24.8C482.9,659.8,490.9,665,490.9,665z"/>
		</g>
		<path class="st20" d="M443.2,691.5c0,0,18,2.3,21.5,9.7c3.5,7.5-7.2,22.7-10.8,22.2c-3.6-0.4-7-8.9-10.8-11c-3.8-2.1-9.3-5-9.3-5
			L443.2,691.5z"/>
		<g>
			<path class="st14" d="M447.8,690.2c-0.4,3.4-9.7,21.1-14.4,20.7c-3.3-0.3-33.7-11.8-51.9-21.6c-7.3-3.9-12.6-7.5-13.5-10
				c-0.7-1.8-0.7-6.4-0.3-12.7c1.7-25.3,10.9-77.3,17.2-76.4c0,0,29.1,0.4,28.3,24.5c-0.8,24.1-9.7,45.6-5.9,50.2
				C411.1,669.5,448.2,686.8,447.8,690.2z"/>
		</g>
		<g class="st24">
			<path class="st12" d="M381.6,689.3c-7.3-3.9-12.6-7.5-13.5-10c-0.7-1.8-0.7-6.4-0.3-12.7c4.8,2.4,9.5,6.5,11.7,13.1
				C380.5,683.1,381.2,686.3,381.6,689.3z"/>
		</g>
		<g class="st11">
			<polygon class="st21" points="486.7,595.6 478.2,576.6 509.9,582.5 			"/>
		</g>
		<polygon class="st25" points="433.3,548.3 423.6,549.6 437.7,557.3 		"/>
		<g>
			<circle class="st26" cx="428.8" cy="519.1" r="1.8"/>
		</g>
		<g>
			<circle class="st26" cx="443.2" cy="514.7" r="1.8"/>
		</g>
		<path class="st25" d="M448.4,530.4c0-0.3,0.1-0.4,0.1-0.4c0-0.3-0.2-0.5-0.5-0.5c-0.3,0-0.5,0.2-0.5,0.5c0,0.1-0.1,2.1-2.4,3.5
			c-2.3,1.4-6.3-0.5-6.4-0.5c-0.3-0.1-0.6,0-0.7,0.2c-0.1,0.3,0,0.6,0.2,0.7c0.2,0.1,4.6,2.2,7.4,0.5
			C447.7,533,448.2,531.3,448.4,530.4z"/>
		
			<ellipse transform="matrix(0.9453 -0.3262 0.3262 0.9453 -149.0439 169.2082)" class="st25" cx="430" cy="529" rx="3.1" ry="2.5"/>
		
			<ellipse transform="matrix(0.7697 -0.6384 0.6384 0.7697 -229.1221 405.9474)" class="st25" cx="448.1" cy="520.5" rx="2.1" ry="1.7"/>
		<path class="st25" d="M436.9,519.3c1.2,1.1,2.4,2.1,3.6,3.2c0.5,0.4,1.5,1,1.5,1.7c0,0.4-1.1,1.5-1.4,1.8
			c-0.6,0.8,0.7,1.5,1.3,0.8c0.8-1.1,2.5-2.4,1.4-3.8c-0.6-0.8-1.6-1.5-2.3-2.1c-1-0.9-2-1.7-2.9-2.6
			C437.3,517.5,436.2,518.6,436.9,519.3L436.9,519.3z"/>
		<g>
			<g>
				<path class="st26" d="M424.8,516.9c-0.2-0.6,1.1-2.3,1.5-2.7c0.7-0.8,1.8-1.5,3-1.3c1,0.1,1.4-1.3,0.4-1.5
					c-1.6-0.3-3.2,0.3-4.3,1.6c-0.9,1-2.4,2.9-2,4.3C423.6,518.2,425.1,517.8,424.8,516.9L424.8,516.9z"/>
			</g>
			<g>
				<path class="st26" d="M439.4,509.7c1.5-1.1,3.5-1.4,5.2-0.5c0.9,0.4,1.6-0.9,0.8-1.3c-2.2-1.1-4.7-1-6.7,0.5
					C437.8,508.9,438.6,510.2,439.4,509.7L439.4,509.7z"/>
			</g>
		</g>
	</g>
	<g>
		<g>
			<ellipse class="st14" cx="1070.8" cy="1051.3" rx="110.2" ry="14.1"/>
		</g>
		<g>
			<path class="st16" d="M1201,547.2C1201.1,547.2,1201.1,547.1,1201,547.2C1201.1,547.1,1201,547.2,1201,547.2z"/>
			<path class="st16" d="M1201,547.2c-0.2,0.4-1.5,2.2-10.3,5c-10.2,3.2-13.1-9.4-21.8-19.2c-8.6-9.9-20.6-2.8-20.6-2.8
				s6.1-26.8-7.8-39.6c-13.8-12.8-40.5-11.1-52.2,3.1c-11.8,14.2-4.8,29.3-4.8,29.3s24.5,31.2,33.4,34.3
				c8.8,3.1,11.8-13.2,11.8-13.2s1.7,19.3,6.7,27.4c5,8.1,23.2,16.4,35.1,13.6c8.1-1.9,12.4-9.6,14.4-14.4
				C1196,562,1200.6,548.4,1201,547.2z M1167,581c-13.5-0.2-21.6-11.1-21.6-11.1s19.2,12.3,34.6,4c1.2-0.6,2.3-1.3,3.4-2.1
				C1180.4,576,1175.1,581.1,1167,581z"/>
		</g>
		<path class="st27" d="M1086.9,514.4c0,0-9.6,18.8-4,29.4c5.6,10.5,17.2,12.3,17.2,12.3l-2.1,22.2l21.8,2.7v-25.9
			c0,0,1.9-8,3.7-10.5c1.8-2.6,4.6-0.5,6.7-5c2.1-4.5,2.4-8.1,0-10s-7.8,4.3-7.8,4.3s-7.2-3.6-13.8-10c-6.6-6.4-9.4-16.6-9.4-16.6
			S1094.2,513.1,1086.9,514.4z"/>
		<path class="st27" d="M986.2,500.2c0,0-3-10.9-8.7-15c-5.7-4.1-12-6.6-11.8-14.5c0.3-7.9,23.2-16.4,27.1-8.2
			c3.8,8.2-1.4,14.3,2.2,20c3.6,5.7,4.6,9.8,4.6,9.8L986.2,500.2z"/>
		<g>
			<path class="st15" d="M1157.6,1012.5c0,0,5.2,26,1.4,30.3s-28.6,5.7-39.9,5.2s-23,0.8-23.8-4.1s1.1-9.2,9.3-13.6
				c8.2-4.4,21.3-11.2,25.4-12.1c4.1-0.9,5.5-5.8,5.5-5.8H1157.6z"/>
		</g>
		<g>
			<path class="st15" d="M1061.8,1012.5c0,0,5.2,26,1.4,30.3c-3.8,4.4-28.6,5.7-39.9,5.2c-11.3-0.5-23,0.8-23.8-4.1
				c-0.8-4.9,1.1-9.2,9.3-13.6c8.2-4.4,21.3-11.2,25.4-12.1s5.5-5.8,5.5-5.8H1061.8z"/>
		</g>
		<g>
			<path class="st16" d="M1060.6,878.3c-1.6,4.9,4.4,15.3,7.7,49.2c3.3,33.9-4.4,83.1-3.7,84.7c0.3,0.8-5.2,1.9-11.2,2.6
				c-6.2,0.7-13.1,1-14.9,0.2c-3.6-1.6-4.1-24.6-7.3-48.7c-3.3-24.1-15.3-84.7-16.4-90.7c-1.1-5.9,0-9.4,6.6-25.2
				c6.6-15.9,41.3-121.1,41.3-121.1c17.9-2.7,35.9,10.1,48.4,26c11.8,15,18.6,32.8,15.6,43.2
				C1120.4,819.8,1062.2,873.4,1060.6,878.3z"/>
		</g>
		<g class="st17">
			<path class="st15" d="M1060.6,878.3c-1.6,4.9,4.4,15.3,7.7,49.2c3.3,33.9-4.4,83.1-3.7,84.7c0.3,0.8-5.2,1.9-11.2,2.6
				c5-15.7,2.1-77.6,0.5-97.2c-1.8-21.9-11.3-30.6-11.9-38.3c-0.5-7.7,45.4-65.6,47.6-78.7c2.2-13.1-7-49.3-7-49.3l28.4,3.9
				c11.8,15,18.6,32.8,15.6,43.2C1120.4,819.8,1062.2,873.4,1060.6,878.3z"/>
		</g>
		<g>
			<path class="st16" d="M1064.5,720c0,0,9.8,23.4,20.1,33.6c10.3,10.3,14.4,16,16,22.6c1.6,6.6,9.8,66,17.6,86.5
				c7.8,20.5,9,19.7,10.3,29.5c1.2,9.8,2.5,32.4,4.9,64c2.5,31.6-2.1,55,0,57s25.8,9,27.9,2.1c2.1-7,16.8-82,11.1-112.8
				c-5.7-30.8-8.2-40.6-7.4-45.5c0.8-4.9,13.1-98.8-8.6-124.7C1134.7,706.4,1064.5,720,1064.5,720z"/>
		</g>
		<g class="st18">
			<path class="st13" d="M1150.9,840.1c1.5-23.3-4.4-74.4-5.8-85.3c2.7,0.9,5.5,1.3,8.2,1.3c6.4,0,12-2,12.4-2.1l-0.8-2.3
				c-0.1,0-12.2,4.3-20.6,0.1c-8.5-4.3-15.4-18.6-15.4-18.7l-2.2,1c0.3,0.6,7,14.6,16,19.6c0.8,6.5,7.5,61.9,5.9,86.4
				c-1.6,25.9-1.2,38.7,4.4,58.9c5.3,19.2-1.6,109.4-5.2,118.6l2.3,0.9c3.7-9.6,10.9-99.8,5.2-120.1
				C1149.7,878.3,1149.3,865.7,1150.9,840.1z"/>
		</g>
		<g>
			<path class="st28" d="M1079.5,570.7l-3.4,7.8v0l-11.2,26.1c0,0-19.4-2.2-33.2-5.6c-5.1-1.3-9.4-2.7-11.7-4.3
				c-8.2-5.7-41-90.2-40.7-95.1c0.3-4.9,18.9-11.8,21.9-12.3c3-0.5,25.4,63.2,29.8,70.5C1035.4,565.2,1079.5,570.7,1079.5,570.7z"/>
		</g>
		<g>
			<path class="st29" d="M1076.2,578.5L1076.2,578.5l-11.2,26.1c0,0-19.4-2.2-33.2-5.6l0,0L1076.2,578.5z"/>
		</g>
		<g>
			<path class="st30" d="M1129.3,578.5c0,0,21,12.4,27.9,31s-5,71.9-3.8,93.5s3.7,26.4,2.9,29.3c-0.8,2.9-97.6,3.3-96.4-5.3
				c1.2-8.6,4.5-45.9,4.1-61.1c-0.4-15.2-11.1-33.2-10.3-47.2c0.8-13.9,12.3-35.3,18-40.2c5.7-4.9,7.6-7.8,7.6-7.8l9.2,2.9
				L1129.3,578.5z"/>
		</g>
		<g>
			<path class="st28" d="M1092.6,733.5l-2.4-0.4c0-0.1,1.9-12.6,0.7-31.6c-0.5-7-1.5-16.6-2.6-26.9c-2-17.9-4.2-38.1-3.5-47.7
				c1.1-14.8,15.7-50.7,16.4-52.2l2.3,0.9c-0.2,0.4-15.1,37-16.2,51.4c-0.7,9.3,1.5,29.5,3.5,47.2c1.1,10.3,2.2,20,2.7,27
				C1094.6,720.6,1092.7,733.3,1092.6,733.5z"/>
		</g>
		<g>
			<path class="st9" d="M1053.6,636.2l61.8-1.8c2.2-0.1,4.1,1.3,4.8,3.4l27.5,84c1,3.2-1.3,6.5-4.7,6.5h-63.2c-2.1,0-4-1.4-4.7-3.4
				l-26.1-82.1C1048.1,639.5,1050.4,636.3,1053.6,636.2z"/>
		</g>
		<g>
			<path class="st31" d="M1165.9,703.1c-1.2,6.7-2.6,11.2-4.2,12.3c-2.3,1.7-10.4,1-20.6-0.9c-23.9-4.5-59.6-15.8-61-18.4
				c-0.4-0.8-0.6-1.9-0.6-3.3c0.1-3.7,1.6-8.9,3.1-12.1c0.4-0.9,0.8-1.7,1.2-2.2c2.1-2.9,49.2,4.5,50.8,3.3c1.6-1.2,0.4-36.9,0-52.5
				s20.5-20.5,20.5-20.5C1171.7,611.2,1170.9,675.3,1165.9,703.1z"/>
		</g>
		<g>
			<path class="st32" d="M1165.9,703.1c-1.2,6.7-2.6,11.2-4.2,12.3c-2.3,1.7-10.4,1-20.6-0.9c2.9-6.3,8-12.2,17.3-12.2
				C1161.1,702.3,1163.6,702.6,1165.9,703.1z"/>
		</g>
		<path class="st27" d="M1082.6,680.8c-1.5,3.2-3,8.4-3.1,12.1c-3.7-1.6-10.3-2.3-16.3-2.3c-6,0-9.6-9-9.4-16.6
			c0.2-7.6,5.4-6.4,9.3-3.3c3.9,3.1,5.7,4.1,12.3,6.8C1078.2,678.7,1080.7,679.8,1082.6,680.8z"/>
		<g>
			<path class="st32" d="M1087.3,573.1c0,0,3.9-5.1,6.8-3.6c2.9,1.4,9.4,3.6,9.4,3.6s15-5.8,16.8-3.9s9,9.3,9,9.3
				s-14.4,8.2-17.8,6.2c-3.5-2.1-8.3-9.3-8.3-9.3s-9.9,9.7-12.8,8.5S1084.1,576.1,1087.3,573.1z"/>
		</g>
		<path class="st20" d="M1100.1,556.1c0,0,3.5,1.9,7.4,0c4-1.9,4-1.9,4-1.9l-12.4,12.6L1100.1,556.1z"/>
		<g>
			<g>
				
					<ellipse transform="matrix(0.1402 -0.9901 0.9901 0.1402 426.2418 1543.9183)" class="st33" cx="1102" cy="526.5" rx="2.3" ry="1.4"/>
			</g>
			<g>
				
					<ellipse transform="matrix(0.1402 -0.9901 0.9901 0.1402 416.2337 1526.6359)" class="st33" cx="1087.1" cy="523.7" rx="2.3" ry="1.4"/>
			</g>
			<path class="st20" d="M1090.8,536.4c-0.3-0.1-0.6-0.2-1-0.3c-0.2-0.1-0.4-0.2-0.6-0.4c-0.4-0.4-0.5-1-0.5-1.8
				c0.1-1.1,0.5-2.1,1.1-2.9c0.2-0.3,0.4-0.5,0.7-0.7c0.2-0.2,0.4-0.4,0.6-0.6c0.6-0.7,0.9-1.6,0.9-2.5c0-0.3,0.3-0.6,0.6-0.6
				c0.3,0,0.5,0.3,0.5,0.6c0,1.2-0.5,2.4-1.2,3.3c-0.2,0.3-0.4,0.5-0.6,0.7c-0.2,0.2-0.4,0.4-0.6,0.6c-0.5,0.6-0.8,1.4-0.9,2.2
				c0,0.4,0,0.7,0.1,0.8c0.1,0.1,0.2,0.1,0.3,0.2c0.9,0.4,1.8,0.5,2.7,0.3c0.3-0.1,0.6,0.2,0.6,0.5c0,0.3-0.1,0.6-0.4,0.7
				C1092.4,536.5,1091.6,536.5,1090.8,536.4z"/>
			<g>
				<path class="st33" d="M1085.9,517.4c1.7-0.6,3.5-0.5,5.2,0.3c0.7,0.3,1.3-0.9,0.5-1.2c-2-0.9-4.1-1-6.1-0.3
					C1084.7,516.3,1085.1,517.6,1085.9,517.4L1085.9,517.4z"/>
			</g>
			<g>
				<path class="st33" d="M1100.6,521c0-0.1,0-0.1,0.1-0.2c-0.1,0.2-0.3,0.3-0.4,0.5c1.9-0.9,4.8,0.5,6.4,1.7
					c0.7,0.5,1.2-0.8,0.5-1.2c-1.5-1-3.1-1.7-4.9-1.9c-0.9-0.1-2.6-0.4-2.9,0.9C1099.2,521.6,1100.4,521.8,1100.6,521L1100.6,521z"
					/>
			</g>
			<path class="st20" d="M1088.6,541.6c0,0,1.1,4,3.7,4.8s5-1.8,5.3-2.7c0.3-0.9,0.8-1.6,0.5-1.6c-0.3,0-3.5,0.6-5.7-0.2
				C1090.1,541,1088.3,539.7,1088.6,541.6z"/>
		</g>
	</g>
	<g>
		<g>
			<g>
				<circle class="st2" cx="690.6" cy="861.4" r="8"/>
			</g>
			<g>
				
					<ellipse transform="matrix(0.9239 -0.3827 0.3827 0.9239 -296.24 321.6924)" class="st2" cx="660.5" cy="905.5" rx="26.9" ry="26.9"/>
			</g>
			<g>
				
					<ellipse transform="matrix(0.9951 -9.853714e-02 9.853714e-02 0.9951 -83.3523 92.501)" class="st2" cx="894.8" cy="890.1" rx="31.3" ry="31.3"/>
			</g>
			<g>
				<path class="st2" d="M967.9,1036.9c-1.7-5.8-5.6-10.7-10.6-13.8c3.5-5.7,5.6-12.5,5.6-19.7c0-20.8-16.8-37.6-37.6-37.6
					c-12.4,0-23.4,6-30.3,15.3c-3.9-4.1-9.4-6.8-15.5-7c0.6-2.7,1-5.4,1-8.3c0-15.8-10.2-29.2-24.3-34c1-3.3,1.6-6.8,1.6-10.5
					c0-19.8-16.1-35.9-35.9-35.9c-12.4,0-23.4,6.3-29.9,15.9c-3.6-1.2-7.4-1.9-11.4-1.9c-0.1,0-0.3,0-0.4,0c0.3-1.8,0.4-3.7,0.4-5.6
					c0-19.8-16.1-35.9-35.9-35.9s-35.9,16.1-35.9,35.9c0,8.2,2.7,15.7,7.4,21.8c-10.4,5.4-17.9,15.7-19.3,27.8c-0.1,0-0.2,0-0.2,0
					c-18.6,0-34,14.2-35.8,32.4c-1.8-0.7-3.7-1.1-5.8-1.1c-8.1,0-14.8,6-15.9,13.9c-0.5,0-1,0-1.5,0c-16.1,0-29.8,10.6-34.3,25.2
					c-2.9-0.9-6-1.4-9.2-1.4c-16.5,0-29.9,13.4-29.9,29.9c0,16.5,13.4,29.9,29.9,29.9h389.2C983.2,1072.3,983,1045.4,967.9,1036.9z"
					/>
			</g>
			<g>
				<path class="st1" d="M632.4,1051.8c1.3-3.4,4-6.2,7.7-8c-2.6-3.3-4-7.2-4-11.4c0-12,12.2-21.8,27.3-21.8c9,0,17,3.5,22,8.9
					c2.9-2.4,6.9-3.9,11.3-4.1c-0.5-1.5-0.7-3.1-0.7-4.8c0-9.1,7.4-16.9,17.7-19.7c-0.7-1.9-1.1-4-1.1-6.1
					c0-11.5,11.7-20.8,26.1-20.8c9,0,17,3.7,21.7,9.2c2.6-0.7,5.4-1.1,8.3-1.1c0.1,0,0.2,0,0.3,0c-0.2-1-0.3-2.1-0.3-3.2
					c0-11.5,11.7-20.8,26.1-20.8S821,957.5,821,969c0,4.7-2,9.1-5.3,12.6c7.6,3.1,13,9.1,14.1,16.1c0.1,0,0.1,0,0.2,0
					c13.6,0,24.7,8.2,26,18.7c1.3-0.4,2.7-0.6,4.2-0.6c5.9,0,10.8,3.5,11.6,8c0.4,0,0.7,0,1.1,0c11.7,0,21.6,6.2,25,14.6
					c2.1-0.5,4.3-0.8,6.7-0.8c12,0,21.7,7.8,21.7,17.3s-9.7,17.3-21.7,17.3H621.3C621.3,1072.3,621.4,1056.7,632.4,1051.8z"/>
			</g>
		</g>
		<g>
			<path class="st9" d="M749.6,797c0,0-16.3,29.7-18.6,70.3s46.2,129,56.9,123.4s45.6-68.1,51.8-104.2c6.2-36-16.3-89.5-16.3-89.5
				H749.6z"/>
		</g>
		<g>
			<path class="st8" d="M762.5,795.9c0,0-23.1,44.6-16.9,79.7c6.2,35.1,6.3,38,7.9,27.8c1.7-10.1,2.9-20.4,2.9-20.4
				s3.2,29.4,10.5,48c7.3,18.6,16.9,31,23.1,25.3c6.2-5.6,14.1-27.6,19.1-46.7c5.1-19.1,3.9-38.5,5.6-26.6
				c1.7,11.9,3.9,20.1,6.2,10.9s7.9-25.5,4.5-46.3c-3.4-20.8-14.6-49-14.6-49L762.5,795.9z"/>
		</g>
		<g>
			<path class="st10" d="M773.8,783.5c0,0-11.8,19.1-6.2,47.9s12.4,54.3,18,45.4c5.6-8.8,18.6-39.8,16.9-62.9
				c-1.7-23.1-7.3-30.4-7.3-30.4H773.8z"/>
		</g>
		<g>
			<path class="st9" d="M719.4,776.5c-102.4-1.4-106.1,52-126.2,52.3c-1,0-2-0.1-2.8-0.4c-16.4-5.2-8.8-60.1,2.8-109.7
				c7.9-33.8,29.8-67.9,44.3-87.7c7.9-10.9,13.7-17.5,13.7-17.5C683,592.9,821.8,778,719.4,776.5z"/>
		</g>
		<g>
			<path class="st8" d="M719.4,776.5c-102.4-1.4-106.1,52-126.2,52.3c-1,0-2-0.1-2.8-0.4c3.1-20.5,24.9-51.4,49.1-59.2
				c32.3-10.5,41.9-26.2,25.3-59c-9.2-18.2-19.7-52.3-27.2-79.3c7.9-10.9,13.7-17.5,13.7-17.5C683,592.9,821.8,778,719.4,776.5z"/>
		</g>
		<g>
			<path class="st9" d="M837,776.5c102.4-1.4,106.1,52,126.2,52.3c1,0,2-0.1,2.8-0.4c16.4-5.2,8.8-60.1-2.8-109.7
				c-7.9-33.8-29.8-67.9-44.3-87.7c-7.9-10.9-13.7-17.5-13.7-17.5C873.4,592.9,734.6,778,837,776.5z"/>
		</g>
		<g>
			<path class="st8" d="M837,776.5c102.4-1.4,106.1,52,126.2,52.3c1,0,2-0.1,2.8-0.4c-3.1-20.5-24.9-51.4-49.1-59.2
				c-32.3-10.5-41.9-26.2-25.3-59c9.2-18.2,19.7-52.3,27.2-79.3c-7.9-10.9-13.7-17.5-13.7-17.5C873.4,592.9,734.6,778,837,776.5z"/>
		</g>
		<g>
			<path class="st16" d="M844.5,769.3c0,0-1.4,7-3.8,14.8c-2.2,7.2-5.3,15-9,18.4c-6.4,6-55.1,3.6-77.8,1.2
				c-3.8-0.4-6.9-0.8-8.9-1.2c-8.6-1.6-15.6-13.9-19.6-23c-2.5-5.7-3.9-10.1-3.9-10.1H844.5z"/>
		</g>
		<g>
			<path class="st22" d="M924.7,471.7c-9.3,118.1-38.3,215.1-57.4,267.3c-8.4,23-15,37.3-17.1,40.8c-1,1.7-4.4,3.2-9.5,4.2
				c-19.7,4.1-64.8,3.4-94.4-0.5c-0.8-0.1-1.6-0.2-2.4-0.3c-7.6-1.1-14-2.4-18.5-3.8c-2.7-0.9-4.8-1.8-6-2.8
				c-6.8-5.7-14.4-19.8-23.4-40c-8-18-17.1-40.8-27.6-66.6c-22.1-54.7-43-160.9-26.5-303.9c0-0.4,0.1-0.8,0.1-1.2
				c12.4-107,79.2-174.1,112.3-201.4c8-6.6,18.5-8.9,28.2-6.6c3.8,0.9,7.5,2.5,10.9,4.8c5.5,3.7,11.1,7.9,16.6,12.4
				c47.3,38.4,93.1,104.2,109.6,193.1C925.6,399.1,927.7,434,924.7,471.7z"/>
		</g>
		<g>
			<path class="st9" d="M919.7,367.1c-20.2,3.5-44.6,6.9-72.7,9.1c-20.2,1.6-42.3,2.6-65.9,2.6c-45.1,0-82.9-3.6-112.6-8.1
				c-9.7-1.5-18.6-3.1-26.6-4.7v0c0-0.2,0-0.4,0.1-0.6c0-0.2,0-0.4,0.1-0.6c0.2-1.5,0.4-3,0.6-4.4c0.1-0.4,0.1-0.9,0.2-1.3
				c0.1-0.5,0.1-0.9,0.2-1.3c0.1-0.9,0.2-1.7,0.4-2.6c0.2-1.1,0.3-2.1,0.5-3.2c1.4-8.6,3.1-16.8,5.1-24.9c2.2-8.7,4.8-17.2,7.6-25.3
				c0.2-0.7,0.5-1.3,0.7-2c2.6-7.4,5.5-14.5,8.6-21.3c1.4-3.1,2.8-6.2,4.3-9.1c0.3-0.6,0.6-1.2,0.9-1.8c0.1-0.3,0.3-0.6,0.4-0.9
				c0.5-0.9,0.9-1.8,1.4-2.7c1.2-2.3,2.4-4.6,3.7-6.9c0.3-0.6,0.6-1.1,0.9-1.7c0.3-0.6,0.6-1.1,0.9-1.7c0.3-0.6,0.6-1.1,1-1.7
				c0.6-1.1,1.2-2.1,1.8-3.2c0,0,0.1-0.1,0.1-0.1c2.6-4.4,5.2-8.6,7.9-12.6c0.1-0.1,0.2-0.3,0.2-0.4c0.6-0.9,1.2-1.8,1.8-2.6
				c6.7-10,13.7-19.1,20.5-27.3c0.1-0.1,0.1-0.1,0.2-0.2c1.3-1.6,2.7-3.1,4-4.6c0.7-0.8,1.4-1.6,2-2.3c2.7-3.1,5.4-6,8.1-8.8
				c0.7-0.7,1.3-1.4,2-2.1c0.3-0.3,0.5-0.6,0.8-0.8c1-1.1,2-2.1,3-3.1c2.3-2.3,4.6-4.6,6.9-6.7c0.6-0.5,1.1-1.1,1.7-1.6
				c0.7-0.6,1.4-1.3,2.1-1.9c0.6-0.6,1.2-1.1,1.8-1.7c2.7-2.4,5.3-4.7,7.8-6.7c0.8-0.7,1.6-1.3,2.4-2h0c1.5-1.2,3.1-2.3,4.7-3.2
				c0.4-0.2,0.8-0.5,1.2-0.7c0.2-0.1,0.4-0.2,0.6-0.3c0.4-0.2,0.9-0.4,1.3-0.6c0.6-0.3,1.3-0.5,2-0.8c0.4-0.2,0.9-0.3,1.3-0.4
				c0.8-0.3,1.7-0.5,2.5-0.7c0.1,0,0.2,0,0.3-0.1c0.4-0.1,0.7-0.2,1.1-0.2c0.1,0,0.2,0,0.2,0c2.4-0.4,4.9-0.5,7.3-0.4
				c0.3,0,0.6,0,0.9,0.1c0.6,0,1.2,0.1,1.9,0.2c0.3,0,0.6,0.1,1,0.2c0.3,0,0.6,0.1,0.9,0.2c0,0,0.1,0,0.1,0c0.3,0.1,0.6,0.1,0.9,0.2
				c3.8,0.9,7.5,2.5,10.9,4.7c6.8,4.6,13.7,9.8,20.5,15.6c0.3,0.3,0.6,0.5,1,0.8c0.5,0.4,1,0.8,1.5,1.3c0.9,0.7,1.7,1.5,2.6,2.2
				c0.7,0.7,1.5,1.3,2.2,2c0.7,0.7,1.5,1.3,2.2,2c0.7,0.7,1.5,1.4,2.2,2.1c0.7,0.7,1.5,1.4,2.2,2.1s1.5,1.4,2.2,2.1
				c0.7,0.7,1.4,1.4,2.1,2.1c0.8,0.8,1.7,1.7,2.5,2.5c0.6,0.7,1.3,1.3,1.9,2c0.7,0.8,1.4,1.5,2.1,2.3c0.7,0.8,1.4,1.5,2.1,2.3
				c0.7,0.8,1.4,1.6,2.1,2.4c2.9,3.3,5.7,6.6,8.6,10.1c0.7,0.9,1.5,1.8,2.2,2.7c0.6,0.8,1.2,1.6,1.8,2.3c0.4,0.6,0.9,1.1,1.3,1.7
				c0.2,0.3,0.5,0.6,0.7,1c0.6,0.8,1.2,1.6,1.8,2.5c0.6,0.8,1.3,1.7,1.9,2.6c0.1,0.1,0.1,0.2,0.2,0.3c0.5,0.7,1.1,1.5,1.6,2.2
				c0.2,0.3,0.5,0.6,0.7,0.9c0.4,0.5,0.7,1,1.1,1.5c0.4,0.5,0.8,1.1,1.1,1.6c0.6,0.8,1.1,1.6,1.7,2.5c0.5,0.8,1.1,1.6,1.6,2.4
				c0.5,0.8,1,1.6,1.5,2.4c0.3,0.5,0.7,1,1,1.6c0.4,0.6,0.7,1.2,1.1,1.7c0.9,1.4,1.7,2.8,2.6,4.2c0.4,0.7,0.8,1.4,1.2,2
				c3,5.1,6,10.3,8.8,15.6c0.4,0.7,0.8,1.5,1.2,2.2c0.8,1.5,1.6,3.1,2.4,4.6c0.5,1,0.9,1.9,1.4,2.9c0,0,0,0.1,0,0.1
				c0.4,0.9,0.9,1.8,1.3,2.7c0.2,0.4,0.4,0.8,0.6,1.2c0.3,0.7,0.6,1.3,0.9,2c0.2,0.5,0.5,1,0.7,1.4c0.4,0.9,0.8,1.9,1.3,2.8
				c0.5,1,0.9,2,1.3,3c0.2,0.4,0.4,0.8,0.5,1.2c0.3,0.7,0.6,1.4,0.9,2.2c0.3,0.6,0.5,1.2,0.8,1.9c0.4,1,0.8,2,1.2,3
				c0.4,0.9,0.7,1.9,1.1,2.8c0.5,1.2,0.9,2.4,1.4,3.6c0.6,1.4,1.1,2.9,1.6,4.4c0.4,1,0.7,2,1.1,2.9c0.5,1.3,0.9,2.5,1.3,3.8
				c0.8,2.4,1.6,4.8,2.4,7.2c0,0.1,0.1,0.2,0.1,0.2c0.4,1.2,0.8,2.5,1.2,3.7c0.8,2.5,1.5,5.1,2.3,7.7c0.4,1.3,0.7,2.6,1.1,3.9
				c0.3,1.2,0.6,2.4,0.9,3.6c0.1,0.2,0.1,0.5,0.2,0.7c0.3,1.1,0.6,2.2,0.8,3.3c0.1,0.3,0.1,0.6,0.2,0.9c0.3,1.1,0.5,2.2,0.8,3.3
				c0,0.2,0.1,0.4,0.1,0.6c0.2,0.7,0.3,1.4,0.5,2.1c0.1,0.6,0.2,1.1,0.4,1.7c0.3,1.2,0.5,2.3,0.7,3.5c0.2,0.9,0.4,1.8,0.6,2.8
				c0.2,0.8,0.4,1.7,0.5,2.6C919.3,364.7,919.5,365.9,919.7,367.1z"/>
		</g>
		<g>
			<path class="st8" d="M919.7,367.1c-34.7,6-82.1,11.7-138.7,11.7c-59.9,0-106.9-6.4-139.1-12.8c0-0.4,0.1-0.8,0.1-1.2
				c0.5-4.3,1.1-8.6,1.8-12.8c39.7,10.4,87.9,18.3,137,15c54.8-3.6,101.5-9.1,136-13.9C917.9,357.7,918.8,362.4,919.7,367.1z"/>
		</g>
		<g>
			<circle class="st16" cx="780.2" cy="497.2" r="73"/>
		</g>
		<g>
			<circle class="st14" cx="780.2" cy="497.2" r="56.1"/>
		</g>
		<g>
			<path class="st13" d="M803.4,530.1c-31,0-56.1-25.1-56.1-56.1c0-9.5,2.4-18.5,6.6-26.3c-17.7,9.4-29.8,28.1-29.8,49.6
				c0,31,25.1,56.1,56.1,56.1c21.5,0,40.1-12.1,49.6-29.8C821.9,527.7,812.9,530.1,803.4,530.1z"/>
		</g>
		<g>
			<path class="st16" d="M867.3,739c-0.3,0.7-0.5,1.4-0.8,2.1c-0.1,0.4-0.3,0.7-0.4,1.1c-0.3,0.7-0.5,1.4-0.8,2.1
				c-0.6,1.7-1.3,3.3-1.9,4.9c-0.1,0.3-0.2,0.6-0.4,0.9c-0.2,0.6-0.5,1.2-0.7,1.8c-1.1,2.7-2.1,5.3-3,7.6c-1.5,3.7-2.8,6.9-4.1,9.6
				c-0.2,0.4-0.3,0.8-0.5,1.1c-0.4,0.9-0.8,1.8-1.2,2.6c-0.2,0.5-0.4,1-0.6,1.4v0c-0.1,0.3-0.3,0.6-0.4,0.8
				c-0.2,0.4-0.4,0.8-0.6,1.2c-0.1,0.2-0.2,0.5-0.3,0.7c-0.1,0.1-0.1,0.2-0.2,0.3c-0.1,0.2-0.2,0.4-0.3,0.6c0,0,0,0,0,0
				c-0.1,0.2-0.2,0.4-0.3,0.5c0,0,0,0,0,0c-0.3,0.5-0.5,0.9-0.7,1.3c-0.1,0.2-0.3,0.4-0.5,0.6c-0.1,0.1-0.2,0.2-0.3,0.3
				c-0.2,0.2-0.5,0.4-0.8,0.6c-0.2,0.1-0.4,0.2-0.6,0.4c-0.3,0.2-0.6,0.3-1,0.5c-0.2,0.1-0.4,0.2-0.6,0.3c-0.5,0.2-1,0.4-1.5,0.5
				c-0.2,0.1-0.4,0.1-0.7,0.2c-0.8,0.2-1.7,0.5-2.6,0.7c-0.3,0.1-0.6,0.1-0.9,0.2c-0.3,0.1-0.6,0.1-0.9,0.2
				c-0.3,0.1-0.6,0.1-0.9,0.2c-0.6,0.1-1.2,0.2-1.9,0.3c-0.6,0.1-1.3,0.2-1.9,0.3c-0.1,0-0.2,0-0.3,0c-0.5,0.1-1.1,0.1-1.6,0.2
				c-1.1,0.1-2.3,0.3-3.6,0.4c-0.6,0.1-1.2,0.1-1.7,0.2c-0.3,0-0.7,0.1-1,0.1c-0.6,0.1-1.2,0.1-1.8,0.1c-1,0.1-1.9,0.1-3,0.2
				c-0.7,0-1.3,0.1-2,0.1c-4.1,0.2-8.4,0.4-13,0.4c-0.6,0-1.3,0-1.9,0c-0.3,0-0.6,0-0.9,0c-0.5,0-1,0-1.5,0c-2.6,0-5.2,0-7.9,0
				c-0.5,0-1.1,0-1.6,0c-2.2,0-4.4-0.1-6.6-0.2c-0.8,0-1.6,0-2.4-0.1c-0.7,0-1.4,0-2.2-0.1c-2.9-0.1-5.7-0.2-8.6-0.4
				c-0.5,0-1.1-0.1-1.6-0.1c-1.1-0.1-2.2-0.1-3.2-0.2c-0.5,0-1.1-0.1-1.6-0.1c-1.6-0.1-3.2-0.2-4.8-0.4c-1-0.1-2.1-0.2-3.1-0.3
				c-0.7-0.1-1.3-0.1-2-0.2c-1.4-0.1-2.7-0.3-4.1-0.4c-0.5,0-1-0.1-1.5-0.2c-1.9-0.2-3.7-0.4-5.5-0.7c-0.8-0.1-1.7-0.2-2.5-0.3h0
				c-7.6-1.1-14-2.3-18.5-3.8c-0.6-0.2-1.1-0.4-1.6-0.6c-0.2-0.1-0.4-0.2-0.6-0.2c-1.2-0.5-2.3-1-3-1.5c-0.1-0.1-0.3-0.2-0.4-0.3
				s-0.2-0.2-0.3-0.3c-0.4-0.4-0.8-0.7-1.3-1.2c-0.4-0.4-0.9-0.9-1.3-1.4c-0.7-0.7-1.3-1.5-2-2.4c-0.4-0.6-0.9-1.2-1.4-1.8
				c-5.2-7.4-11-18.8-17.5-33.2c7.6,1.2,16.6,2.6,26.7,3.8c20.4,2.5,45.3,4.7,71.6,5.1c0.7,0,1.5,0,2.2,0
				C822.9,745.8,847.3,742.8,867.3,739z"/>
		</g>
		<g>
			<path class="st2" d="M722.7,740.3c-10.1-1.2-19.1-2.6-26.7-3.8c-8-18-17.1-40.8-27.6-66.7c-22.1-54.7-43-160.9-26.5-303.8
				c8,1.6,16.8,3.2,26.6,4.7c-11,110.7,5.7,272.6,38.7,338.7C712.7,720.3,717.8,730.6,722.7,740.3z"/>
		</g>
		<g class="st18">
			<path class="st13" d="M754,803.6c-3.8-0.4-6.9-0.8-8.9-1.2c-8.6-1.6-15.6-13.9-19.6-23c-0.6-0.2-1.1-0.4-1.6-0.6
				c-0.2-0.1-0.4-0.2-0.6-0.2c-1.2-0.5-2.3-1-3-1.5c-0.1-0.1-0.3-0.2-0.4-0.3s-0.2-0.2-0.3-0.3c-0.4-0.4-0.8-0.7-1.3-1.2
				c-0.4-0.4-0.9-0.9-1.3-1.4c-0.7-0.7-1.3-1.5-2-2.4c-0.5-0.6-0.9-1.2-1.4-1.8c-5.2-7.4-11-18.8-17.5-33.2
				c7.6,1.2,16.6,2.6,26.7,3.8c5.2,10.4,10,20.1,14.4,28.9c2.4,4.9,4.7,9.5,6.9,13.9h0v0C747.7,790.8,751.1,797.7,754,803.6z"/>
		</g>
		<g>
			<path class="st34" d="M782.6,156.9c-31.1,29-94.5,96.6-109.1,177.4c-2,11.3-3.7,23.5-5,36.4c-9.7-1.5-18.6-3.1-26.6-4.7v0
				c0-0.2,0-0.4,0.1-0.6c0-0.2,0-0.4,0.1-0.6c0.2-1.5,0.4-3,0.5-4.4c0.1-0.4,0.1-0.9,0.2-1.3c0.1-0.5,0.1-0.9,0.2-1.3
				c0.1-0.9,0.2-1.7,0.4-2.6c1.4-9.7,3.3-19,5.6-28c2.2-8.7,4.7-17.2,7.6-25.3c0.2-0.7,0.5-1.3,0.7-2c2.6-7.4,5.5-14.5,8.6-21.3
				c1.4-3.1,2.8-6.2,4.3-9.1c0.3-0.6,0.6-1.2,0.9-1.8c0.1-0.3,0.3-0.6,0.4-0.9c0.4-0.9,0.9-1.8,1.4-2.7c1.2-2.3,2.4-4.6,3.7-6.9
				c0.3-0.6,0.6-1.1,0.9-1.7c0.3-0.6,0.6-1.1,0.9-1.7c0.3-0.6,0.6-1.1,1-1.7c0.6-1.1,1.2-2.1,1.8-3.2c0,0,0.1-0.1,0.1-0.1
				c2.6-4.4,5.2-8.6,7.9-12.6c0.1-0.1,0.2-0.3,0.2-0.4c0.6-0.9,1.2-1.8,1.8-2.6c6.7-10,13.7-19.1,20.5-27.3c0.1-0.1,0.1-0.1,0.2-0.2
				c1.3-1.6,2.6-3.1,4-4.6c0.7-0.8,1.4-1.6,2-2.3c2.7-3.1,5.4-6,8.1-8.8c0.7-0.7,1.3-1.4,2-2.1c0.3-0.3,0.5-0.6,0.8-0.8
				c1-1.1,2-2.1,3-3.1c2.3-2.3,4.6-4.6,6.9-6.7c0.6-0.5,1.1-1.1,1.7-1.6c0.7-0.6,1.4-1.3,2.1-1.9c0.6-0.6,1.2-1.1,1.8-1.7
				c2.7-2.4,5.3-4.7,7.8-6.7c0.8-0.7,1.6-1.3,2.4-2h0c1.5-1.2,3.1-2.3,4.7-3.2c0.4-0.2,0.8-0.5,1.2-0.7c0.2-0.1,0.4-0.2,0.6-0.3
				c0.4-0.2,0.9-0.4,1.3-0.6c0.6-0.3,1.3-0.5,2-0.8c0.4-0.2,0.9-0.3,1.3-0.4c0.8-0.3,1.7-0.5,2.5-0.7c0.1,0,0.2,0,0.3-0.1
				c0.4-0.1,0.7-0.1,1.1-0.2c0.1,0,0.2,0,0.2,0c2.4-0.4,4.9-0.5,7.3-0.4c0.3,0,0.6,0,0.9,0.1c0.6,0.1,1.2,0.1,1.9,0.2
				c0.3,0,0.6,0.1,1,0.2c0.3,0,0.6,0.1,0.9,0.2c0,0,0.1,0,0.1,0C782,156.7,782.3,156.8,782.6,156.9z"/>
		</g>
		<g>
			<path class="st14" d="M924.7,471.7c-9.3,118.1-38.3,215.1-57.4,267.3c-20,3.8-44.4,6.8-70.8,6.5c-0.7,0-1.5,0-2.2,0
				c25.8-53.8,65.8-160.2,58.8-291.5c-1.5-27.4-3.6-53.3-6.2-77.7c28.1-2.2,52.6-5.6,72.7-9.1C925.6,399.1,927.7,434,924.7,471.7z"
				/>
		</g>
		<g class="st17">
			<path class="st15" d="M867.3,739c-0.3,0.7-0.5,1.4-0.8,2.1c-0.1,0.4-0.3,0.7-0.4,1.1c-0.3,0.7-0.5,1.4-0.8,2.1
				c-0.6,1.7-1.3,3.3-1.9,4.9c-0.1,0.3-0.2,0.6-0.4,0.9c-0.2,0.6-0.5,1.2-0.7,1.8c-1.1,2.7-2.1,5.3-3,7.6c-1.5,3.7-2.9,6.9-4.1,9.6
				c-0.2,0.4-0.3,0.8-0.5,1.1c-0.4,0.9-0.8,1.8-1.2,2.6c-0.2,0.5-0.4,1-0.6,1.4c0,0,0,0,0,0c-0.1,0.3-0.3,0.6-0.4,0.8
				c-0.2,0.4-0.4,0.8-0.6,1.2c-0.1,0.2-0.2,0.5-0.3,0.7c-0.1,0.1-0.1,0.2-0.2,0.3c-0.1,0.2-0.2,0.4-0.3,0.6c0,0,0,0,0,0
				c-0.1,0.2-0.2,0.4-0.3,0.5c0,0,0,0,0,0c-0.3,0.5-0.5,0.9-0.7,1.3c-0.1,0.2-0.3,0.4-0.5,0.6c-0.1,0.1-0.2,0.2-0.3,0.3
				c-0.2,0.2-0.5,0.4-0.8,0.6c-0.2,0.1-0.4,0.2-0.6,0.4c-0.3,0.2-0.6,0.3-1,0.5c-0.2,0.1-0.4,0.2-0.6,0.3c-0.5,0.2-1,0.4-1.5,0.5
				c-0.2,0.1-0.4,0.1-0.7,0.2c-0.8,0.2-1.7,0.5-2.6,0.7c-0.3,0.1-0.6,0.1-0.9,0.2c-0.3,0.1-0.6,0.1-0.9,0.2
				c-0.3,0.1-0.6,0.1-0.9,0.2c-0.6,0.1-1.2,0.2-1.9,0.3c-0.6,0.1-1.3,0.2-1.9,0.3c-0.1,0-0.2,0-0.3,0c-0.5,0.1-1.1,0.1-1.6,0.2
				c-1.1,0.1-2.3,0.3-3.6,0.4c-0.6,0.1-1.2,0.1-1.7,0.2c-0.3,0-0.7,0.1-1,0.1c-0.6,0.1-1.2,0.1-1.8,0.1c-1,0.1-1.9,0.1-3,0.2
				c-0.7,0-1.3,0.1-2,0.1c-4.1,0.2-8.4,0.4-13,0.4c-0.6,0-1.3,0-1.9,0c-0.3,0-0.6,0-0.9,0c-0.5,0-1,0-1.5,0c-2.6,0-5.2,0-7.9,0
				c-0.5,0-1.1,0-1.6,0c-2.2,0-4.4-0.1-6.6-0.2c-0.8,0-1.6,0-2.4-0.1c-0.7,0-1.4,0-2.2-0.1c-2.9-0.1-5.7-0.2-8.6-0.4
				c-0.5,0-1.1-0.1-1.6-0.1c-1.1-0.1-2.2-0.1-3.2-0.2c-0.5,0-1.1-0.1-1.6-0.1c-1.6-0.1-3.2-0.2-4.8-0.4c-1-0.1-2.1-0.2-3.1-0.3
				c-0.7-0.1-1.3-0.1-2-0.2c-1.4-0.1-2.7-0.3-4.1-0.4c-0.5,0-1-0.1-1.5-0.2c-1.9-0.2-3.7-0.4-5.5-0.7h27.5c0,0,8.8-13.6,20.5-38.1
				c0.7,0,1.5,0,2.2,0C822.9,745.8,847.3,742.8,867.3,739z"/>
		</g>
		<g>
			<path class="st8" d="M919.7,367.1c-20.2,3.5-44.6,6.9-72.7,9.1c-9.8-93-26.2-163.4-36.8-202.2c3,2.4,5.9,4.9,8.9,7.5
				c0.7,0.7,1.5,1.3,2.2,2c0.7,0.7,1.5,1.3,2.2,2c0.7,0.7,1.5,1.4,2.2,2.1c0.7,0.7,1.5,1.4,2.2,2.1s1.5,1.4,2.2,2.1
				c0.7,0.7,1.4,1.4,2.1,2.1c0.8,0.8,1.7,1.7,2.5,2.5c0.6,0.7,1.3,1.3,1.9,2c0.7,0.8,1.4,1.5,2.1,2.3c0.7,0.8,1.4,1.5,2.1,2.3
				c0.7,0.8,1.4,1.6,2.1,2.4c2.9,3.3,5.7,6.6,8.6,10.1c0.7,0.9,1.5,1.8,2.2,2.7c0.6,0.8,1.2,1.6,1.8,2.3c0.4,0.6,0.9,1.1,1.3,1.7
				c0.2,0.3,0.5,0.6,0.7,1c0.6,0.8,1.2,1.6,1.8,2.5c0.6,0.8,1.3,1.7,1.9,2.6c0.1,0.1,0.1,0.2,0.2,0.3c0.5,0.7,1.1,1.5,1.6,2.2
				c0.2,0.3,0.5,0.6,0.7,0.9c0.4,0.5,0.7,1,1.1,1.5c0.4,0.5,0.8,1.1,1.1,1.6c0.6,0.8,1.1,1.6,1.7,2.5c0.5,0.8,1.1,1.6,1.6,2.4
				c0.5,0.8,1,1.6,1.5,2.4c0.3,0.5,0.7,1,1,1.6c0.4,0.6,0.7,1.2,1.1,1.7c0.9,1.4,1.7,2.8,2.6,4.2c0.4,0.7,0.8,1.4,1.2,2
				c3,5.1,6,10.3,8.8,15.6c0.4,0.7,0.8,1.5,1.2,2.2c0.8,1.5,1.6,3.1,2.4,4.6c0.5,1,0.9,1.9,1.4,2.9c0,0,0,0.1,0,0.1
				c0.4,0.9,0.9,1.8,1.3,2.7c0.2,0.4,0.4,0.8,0.6,1.2c0.3,0.7,0.6,1.3,0.9,2c0.2,0.5,0.5,1,0.7,1.4c0.4,0.9,0.8,1.9,1.3,2.8
				c0.5,1,0.9,2,1.3,3c0.2,0.4,0.4,0.8,0.5,1.2c0.3,0.7,0.6,1.4,0.9,2.2c0.3,0.6,0.5,1.2,0.8,1.9c0.4,1,0.8,2,1.2,3
				c0.4,0.9,0.7,1.9,1.1,2.8c0.5,1.2,0.9,2.4,1.4,3.6c0.6,1.4,1.1,2.9,1.6,4.4c0.4,1,0.7,2,1.1,2.9c0.5,1.3,0.9,2.5,1.3,3.8
				c0.8,2.4,1.6,4.8,2.4,7.2c0,0.1,0.1,0.2,0.1,0.2c0.4,1.2,0.8,2.5,1.2,3.7c0.8,2.6,1.5,5.1,2.3,7.7c0.4,1.3,0.7,2.6,1.1,3.9
				c0.3,1.2,0.6,2.4,0.9,3.6c0.1,0.2,0.1,0.5,0.2,0.7c0.3,1.1,0.6,2.2,0.8,3.3c0.1,0.3,0.1,0.6,0.2,0.9c0.3,1.1,0.5,2.2,0.8,3.3
				c0,0.2,0.1,0.4,0.1,0.6c0.3,1.2,0.6,2.5,0.8,3.7c0.3,1.2,0.5,2.3,0.7,3.5c0.2,0.9,0.4,1.8,0.6,2.8c0.2,0.8,0.4,1.7,0.5,2.6
				C919.3,364.7,919.5,365.9,919.7,367.1z"/>
		</g>
	</g>
	<g>
		<path class="st5" d="M934.8,221.5l-26.6,37.6c-1.2,1.7,0,4,2.1,4H925c1.4,0,2.5,1.1,2.5,2.5v27.6c0,1.4,1.1,2.5,2.5,2.5h6.8h6.8
			c1.4,0,2.5-1.1,2.5-2.5v-27.6c0-1.4,1.1-2.5,2.5-2.5h14.7c2.1,0,3.3-2.3,2.1-4L939,221.5C938,220,935.8,220,934.8,221.5z"/>
	</g>
	<g>
		<path class="st5" d="M588.9,562.1L569.2,590c-0.9,1.2,0,3,1.5,3h10.9c1,0,1.9,0.8,1.9,1.9v20.5c0,1,0.8,1.9,1.9,1.9h5h5
			c1,0,1.9-0.8,1.9-1.9v-20.5c0-1,0.8-1.9,1.9-1.9h10.9c1.5,0,2.4-1.7,1.5-3L592,562.1C591.2,561,589.6,561,588.9,562.1z"/>
	</g>
	<g>
		<g>
			<g>
				<path class="st13" d="M607.7,408.5c1.1-2,2.2-3.1,2.8-3.6c0.3-0.3,0.3-0.8-0.1-1l-6.9-3.9c0.8-2.8,1.1-5.6,1-8.4l7.6-2.2
					c0.4-0.1,0.6-0.6,0.3-0.9c-0.5-0.7-1.3-2-1.9-4.2c-0.6-2.2-0.6-3.7-0.6-4.6c0-0.4-0.4-0.8-0.8-0.6l-7.6,2.2
					c-1.3-2.5-3.1-4.8-5.3-6.7l3.8-6.9c0.2-0.4,0-0.8-0.4-0.9c-0.9-0.1-2.3-0.5-4.3-1.6c-2-1.1-3.1-2.2-3.6-2.8
					c-0.3-0.3-0.8-0.3-1,0.1l-3.8,6.9c-2.8-0.8-5.6-1.1-8.4-1l-2.2-7.6c-0.1-0.4-0.6-0.6-0.9-0.3c-0.7,0.5-2,1.3-4.2,1.9
					c-2.2,0.6-3.7,0.7-4.5,0.6c-0.4,0-0.7,0.4-0.6,0.8l2.2,7.7c-2.5,1.3-4.7,3.1-6.6,5.3l-6.9-3.9c-0.4-0.2-0.8,0-0.9,0.4
					c-0.1,0.9-0.5,2.3-1.6,4.3c-1.1,2-2.2,3.1-2.8,3.6c-0.3,0.3-0.3,0.8,0.1,1l7,3.9c-0.8,2.8-1.1,5.6-0.9,8.4l-7.7,2.2
					c-0.4,0.1-0.6,0.6-0.3,0.9c0.5,0.7,1.3,2,1.9,4.2c0.6,2.2,0.6,3.7,0.6,4.6c0,0.4,0.4,0.8,0.8,0.6l7.7-2.2
					c1.3,2.5,3.1,4.7,5.2,6.6l-3.9,7c-0.2,0.4,0,0.8,0.4,0.9c0.9,0.1,2.3,0.5,4.3,1.6c2,1.1,3.1,2.2,3.6,2.8c0.3,0.3,0.8,0.3,1-0.1
					l3.9-7c2.7,0.8,5.6,1.1,8.3,1l2.2,7.7c0.1,0.4,0.6,0.6,0.9,0.3c0.7-0.5,1.9-1.3,4.2-1.9c2.2-0.6,3.7-0.7,4.5-0.6
					c0.4,0,0.7-0.4,0.6-0.8l-2.2-7.7c2.5-1.3,4.7-3.1,6.6-5.2l7,3.9c0.4,0.2,0.8,0,0.9-0.4C606.2,412,606.6,410.5,607.7,408.5z
					 M572.3,406.9c-7.6-4.3-10.4-14-6.1-21.6c4.3-7.7,13.9-10.4,21.5-6.2c7.6,4.3,10.4,14,6.1,21.6
					C589.6,408.4,580,411.1,572.3,406.9z"/>
			</g>
		</g>
		<g>
			<g>
				<path class="st14" d="M609,408c1.1-2,2.2-3.1,2.8-3.6c0.3-0.3,0.3-0.8-0.1-1l-6.9-3.9c0.8-2.8,1.1-5.6,1-8.4l7.6-2.2
					c0.4-0.1,0.6-0.6,0.3-0.9c-0.5-0.7-1.3-2-1.9-4.2c-0.6-2.2-0.6-3.7-0.6-4.6c0-0.4-0.4-0.8-0.8-0.6l-7.6,2.2
					c-1.3-2.5-3.1-4.8-5.3-6.7l3.8-6.9c0.2-0.4,0-0.8-0.4-0.9c-0.9-0.1-2.3-0.5-4.3-1.6c-2-1.1-3.1-2.2-3.6-2.8
					c-0.3-0.3-0.8-0.3-1,0.1l-3.8,6.9c-2.8-0.8-5.6-1.1-8.4-1l-2.2-7.6c-0.1-0.4-0.6-0.6-0.9-0.3c-0.7,0.5-2,1.3-4.2,1.9
					c-2.2,0.6-3.7,0.7-4.5,0.6c-0.4,0-0.7,0.4-0.6,0.8l2.2,7.7c-2.5,1.3-4.7,3.1-6.6,5.3l-6.9-3.9c-0.4-0.2-0.8,0-0.9,0.4
					c-0.1,0.9-0.5,2.3-1.6,4.3s-2.2,3.1-2.8,3.6c-0.3,0.3-0.3,0.8,0.1,1l7,3.9c-0.8,2.8-1.1,5.6-0.9,8.4l-7.7,2.2
					c-0.4,0.1-0.6,0.6-0.3,0.9c0.5,0.7,1.3,2,1.9,4.2c0.6,2.2,0.6,3.7,0.6,4.6c0,0.4,0.4,0.8,0.8,0.6l7.7-2.2
					c1.3,2.5,3.1,4.7,5.2,6.6l-3.9,7c-0.2,0.4,0,0.8,0.4,0.9c0.9,0.1,2.3,0.5,4.3,1.6c2,1.1,3.1,2.2,3.6,2.8c0.3,0.3,0.8,0.3,1-0.1
					l3.9-7c2.7,0.8,5.6,1.1,8.3,1l2.2,7.7c0.1,0.4,0.6,0.6,0.9,0.3c0.7-0.5,2-1.3,4.2-1.9c2.2-0.6,3.7-0.7,4.5-0.6
					c0.4,0,0.7-0.4,0.6-0.8l-2.2-7.7c2.5-1.3,4.7-3.1,6.6-5.2l7,3.9c0.4,0.2,0.8,0,0.9-0.4C607.5,411.5,607.9,410.1,609,408z
					 M573.6,406.4c-7.6-4.3-10.4-14-6.1-21.6c4.3-7.7,13.9-10.4,21.5-6.2c7.6,4.3,10.4,14,6.1,21.6
					C590.9,407.9,581.2,410.6,573.6,406.4z"/>
			</g>
		</g>
		<g>
			<g>
				<path class="st13" d="M590.3,376.2c-9-5-20.3-1.8-25.3,7.2c-5,9-1.8,20.4,7.2,25.4c9,5,20.3,1.8,25.3-7.2
					C602.5,392.6,599.3,381.2,590.3,376.2z M573.6,406.4c-7.6-4.3-10.4-14-6.1-21.6c4.3-7.7,13.9-10.4,21.5-6.2s10.4,14,6.1,21.6
					C590.9,407.9,581.2,410.6,573.6,406.4z"/>
			</g>
		</g>
		<g>
			<g>
				<path class="st14" d="M589,378.6c-7.6-4.3-17.3-1.5-21.5,6.2c-4.3,7.7-1.5,17.4,6.1,21.6c7.6,4.3,17.3,1.5,21.5-6.2
					C599.4,392.5,596.7,382.9,589,378.6z M575.8,402.5c-5.5-3.1-7.4-10-4.4-15.5c3-5.5,10-7.5,15.4-4.4c5.5,3.1,7.4,10,4.4,15.5
					C588.1,403.6,581.2,405.6,575.8,402.5z"/>
			</g>
		</g>
	</g>
	<g>
		<g>
			<path class="st9" d="M1279.7,760.7c1.7,7.1,1.3,14.3-0.8,20.8c-0.6,2.1-1.5,4.1-2.5,6.1c-2.2,4.4-5.2,8.3-8.8,11.6
				c-0.6,0.5-1.2,1-1.8,1.5c-1.9,1.5-3.9,2.9-6.1,4c-2.4,1.3-4.9,2.4-7.6,3.1c-0.8,0.2-1.6,0.4-2.4,0.6c-21.4,5-42.8-8.4-47.8-29.8
				c-1.8-7.7-1.2-15.3,1.2-22.2c1-2.7,2.2-5.4,3.8-7.8c1.1-1.7,2.2-3.3,3.5-4.8c0.7-0.8,1.4-1.6,2.2-2.4c3.1-3.1,6.8-5.8,10.9-7.7
				c2-1,4.1-1.8,6.3-2.4c0.6-0.2,1.2-0.3,1.8-0.5C1253.3,725.9,1274.7,739.3,1279.7,760.7z"/>
		</g>
		<g>
			<circle class="st10" cx="1240.9" cy="769.7" r="35.1"/>
		</g>
		<g>
			<circle class="st8" cx="1240.9" cy="769.7" r="33.2"/>
		</g>
		<g class="st11">
			<path class="st10" d="M1272.5,779.8c-3.4,10.8-12.3,19.5-24.1,22.3c-17.9,4.1-35.7-7-39.8-24.8c-2.9-12.5,1.6-24.9,10.7-32.7
				c-1.8,5.5-2.1,11.5-0.7,17.6c4.1,17.9,22,29,39.8,24.8C1263.8,785.7,1268.6,783.2,1272.5,779.8z"/>
		</g>
		<g>
			<path class="st12" d="M1242.7,786.2v5h-2.8v-5c-4.3-0.2-8.4-1.7-10.7-3.8l1.6-3.4c2.1,1.9,5.5,3.3,9.1,3.5v-10.3
				c-4.9-1.2-10-2.7-10-8.8c0-4.4,3.1-8.2,10-8.8v-5h2.8v5c3.3,0.1,6.6,1.1,9,2.7l-1.5,3.5c-2.4-1.5-5-2.3-7.5-2.5v10.3
				c5,1.2,10.3,2.7,10.3,8.8C1253,781.8,1249.7,785.6,1242.7,786.2z M1239.9,768v-9.5c-3.9,0.5-5.7,2.5-5.7,4.8
				C1234.3,766,1236.7,767.1,1239.9,768z M1248.7,777.7c0-2.8-2.7-3.9-5.9-4.8v9.5C1246.9,782,1248.7,780.1,1248.7,777.7z"/>
		</g>
	</g>
	<g>
		<g>
			<path class="st9" d="M1060.7,389.4c-0.4,4.6-2.1,8.9-4.6,12.4c-0.8,1.1-1.7,2.2-2.7,3.2c-2.2,2.2-4.8,4-7.6,5.3
				c-0.5,0.2-0.9,0.4-1.4,0.6c-1.4,0.6-2.9,1-4.5,1.2c-1.7,0.3-3.4,0.5-5.2,0.4c-0.5,0-1,0-1.5-0.1c-13.9-1.2-24.2-13.5-23-27.5
				c0.4-5,2.3-9.5,5.1-13.2c1.1-1.5,2.4-2.8,3.8-4c1-0.8,2-1.6,3.1-2.2c0.6-0.4,1.2-0.7,1.8-1c2.5-1.3,5.3-2.1,8.1-2.5
				c1.4-0.2,2.8-0.3,4.3-0.2c0.4,0,0.8,0,1.2,0.1C1051.7,363.2,1062,375.5,1060.7,389.4z"/>
		</g>
		<g>
			<circle class="st10" cx="1035.5" cy="387.2" r="22.3"/>
		</g>
		<g>
			<circle class="st8" cx="1035.5" cy="387.2" r="21.1"/>
		</g>
		<g class="st11">
			<path class="st10" d="M1052.6,399.5c-4.2,5.8-11.3,9.4-19,8.7c-11.6-1-20.2-11.3-19.2-22.9c0.7-8.1,5.9-14.7,12.9-17.6
				c-2.2,3-3.6,6.6-3.9,10.5c-1,11.6,7.5,21.9,19.2,22.9C1046.2,401.3,1049.6,400.8,1052.6,399.5z"/>
		</g>
		<g>
			<path class="st12" d="M1033.3,397.5l-1,3l-1.7-0.6l1-3c-2.6-1-4.8-2.7-5.7-4.4l1.7-1.8c0.9,1.6,2.7,3.1,4.8,3.9l2-6.2
				c-2.7-1.7-5.5-3.6-4.3-7.3c0.9-2.6,3.5-4.3,7.8-3.3l1-3l1.7,0.6l-1,3c2,0.7,3.8,2,4.9,3.4l-1.6,1.8c-1.1-1.4-2.6-2.4-4.1-3
				l-2,6.2c2.7,1.7,5.7,3.7,4.5,7.3C1040.4,396.9,1037.7,398.5,1033.3,397.5z M1035.2,385.9l1.9-5.8c-2.5-0.5-3.9,0.4-4.4,1.8
				C1032.2,383.6,1033.5,384.8,1035.2,385.9z M1038.6,393.5c0.6-1.7-0.8-2.9-2.6-4.1l-1.9,5.7C1036.7,395.8,1038.1,395,1038.6,393.5
				z"/>
		</g>
	</g>
	<g>
		<g>
			<path class="st9" d="M339.6,681.5c2.9,4.7,4.3,9.9,4.4,15c0,1.6-0.1,3.3-0.3,4.9c-0.5,3.6-1.7,7.1-3.5,10.3
				c-0.3,0.5-0.6,1-0.9,1.5c-1,1.5-2.1,3-3.4,4.3c-1.4,1.5-2.9,2.8-4.7,4c-0.5,0.3-1,0.7-1.5,1c-14.1,8.6-32.5,4.2-41.1-9.9
				c-3.1-5-4.5-10.6-4.4-16.1c0-2.2,0.3-4.3,0.8-6.5c0.4-1.5,0.8-2.9,1.4-4.3c0.3-0.8,0.6-1.5,1-2.2c1.5-3,3.5-5.7,6-8.1
				c1.2-1.2,2.5-2.2,4-3.2c0.4-0.3,0.8-0.5,1.2-0.8C312.6,663,331,667.4,339.6,681.5z"/>
		</g>
		<g>
			<circle class="st10" cx="314.1" cy="697.1" r="26.3"/>
		</g>
		<g>
			<circle class="st8" cx="314.1" cy="697.1" r="24.9"/>
		</g>
		<g class="st11">
			<path class="st10" d="M339,696.8c0.1,8.5-4.1,16.8-11.9,21.5c-11.7,7.2-27.1,3.5-34.2-8.3c-5-8.2-4.7-18.1-0.1-25.8
				c0,4.3,1.2,8.7,3.7,12.7c7.2,11.7,22.5,15.4,34.2,8.3C334.1,703,337,700.1,339,696.8z"/>
		</g>
		<g>
			<path class="st12" d="M319.3,708.4l1.2,3.6l-2,0.7l-1.2-3.6c-3.1,0.9-6.4,0.8-8.6-0.2l0.3-2.8c1.9,0.9,4.7,1.1,7.3,0.4l-2.4-7.3
				c-3.7,0.3-7.8,0.4-9.2-3.9c-1-3.1,0.3-6.6,5-8.6l-1.2-3.6l2-0.7l1.2,3.6c2.4-0.7,5-0.8,7-0.2l-0.2,2.9c-2.1-0.5-4.1-0.5-5.9,0
				l2.4,7.3c3.8-0.3,7.9-0.5,9.4,3.8C325.5,702.8,324.1,706.3,319.3,708.4z M312.9,696.1l-2.3-6.8c-2.7,1.3-3.4,3.1-2.9,4.8
				C308.4,696,310.5,696.2,312.9,696.1z M321.5,700.9c-0.7-2-2.8-2.2-5.4-2l2.2,6.8C321.2,704.4,322,702.6,321.5,700.9z"/>
		</g>
	</g>
	<g>
		<g>
			<g>
				<path class="st2" d="M602.2,145.2c-37.1,0-67.1,30.1-67.1,67.1s30.1,67.1,67.1,67.1s67.1-30.1,67.1-67.1
					S639.2,145.2,602.2,145.2z M602.2,262.5c-27.7,0-50.1-22.4-50.1-50.1c0-27.7,22.4-50.1,50.1-50.1c27.7,0,50.1,22.4,50.1,50.1
					C652.3,240,629.8,262.5,602.2,262.5z"/>
			</g>
		</g>
		<g>
			<g>
				<path class="st30" d="M602.2,162.3c-27.7,0-50.1,22.4-50.1,50.1c0,27.7,22.4,50.1,50.1,50.1c27.7,0,50.1-22.4,50.1-50.1
					C652.3,184.7,629.8,162.3,602.2,162.3z M602.2,245.3c-18.2,0-32.9-14.7-32.9-32.9s14.7-32.9,32.9-32.9s32.9,14.7,32.9,32.9
					S620.4,245.3,602.2,245.3z"/>
			</g>
		</g>
		<g>
			<g>
				<path class="st2" d="M602.2,179.4c-18.2,0-32.9,14.7-32.9,32.9s14.7,32.9,32.9,32.9s32.9-14.7,32.9-32.9
					S620.4,179.4,602.2,179.4z M602.2,224.1c-6.5,0-11.7-5.2-11.7-11.7s5.2-11.7,11.7-11.7c6.5,0,11.7,5.2,11.7,11.7
					S608.6,224.1,602.2,224.1z"/>
			</g>
		</g>
		<g>
			
				<ellipse transform="matrix(0.9871 -0.1602 0.1602 0.9871 -26.2423 99.1989)" class="st30" cx="602.2" cy="212.4" rx="11.7" ry="11.7"/>
		</g>
		<g>
			<path class="st16" d="M602.2,212.4L535,158.7l7-4.8l7.1-4.8l56.7,60.1l0.2,0.2C609.8,213.5,602.2,212.4,602.2,212.4z"/>
		</g>
		<g>
			<path class="st13" d="M555.9,175.4c0,0-19.8,0.8-32.7-9.4c-12.9-10.1-12.9-10.1-12.9-10.1l26.1,1.9L555.9,175.4z"/>
		</g>
		<g>
			<path class="st13" d="M549.1,149.2l-0.6-22c0,0,19.4,14.4,19.4,24.8c0,10.4,0,17.2,0,17.2L549.1,149.2z"/>
		</g>
		<g class="st17">
			<path class="st15" d="M602.2,212.4L535,158.7l7-4.8c15.3,14.9,45.7,44.3,53.8,50.1c3.2,2.3,6.7,4,10,5.2l0.2,0.2
				C609.8,213.5,602.2,212.4,602.2,212.4z"/>
		</g>
	</g>
	<g>
		<g>
			<path class="st2" d="M529.4,398.9H370.8c-4-5.5-15-23.4,3.8-33.1c4.3-2.2,8.3-3.4,12-3.9c15.8-2.3,26,7.5,26,7.5
				s-7.8-31.8,37-35.7c44.6-3.9,36.7,20.5,36.7,20.7c0.2-0.2,10.8-7.3,21.1-1.6c10.4,5.7,0,19.9,0,19.9s15.6-5.9,32.1-0.8
				C552.5,375.8,539.3,392.1,529.4,398.9z"/>
		</g>
		<g>
			<path class="st1" d="M529.4,398.9H370.8c-4-5.5-15-23.4,3.8-33.1c4.3-2.2,8.3-3.4,12-3.9c-5.8,4.8-11.2,11.2-9.7,17.7
				c3.2,13.1,29.8,16.3,29.8,16.3s4.9-20,25.6-17.5c20.4,2.4,27,10,27.2,10.2c-0.1-0.4-2.7-18.3,13.4-22.5
				c16.2-4.3,30.2,6.9,32.1,13.5c1.9,6.6,1.9,8.6,1.9,8.6s12.7-5.9,18.8-2.7C532,388.8,529.4,398.9,529.4,398.9z"/>
		</g>
		<g>
			<path class="st12" d="M438.5,338.4c-7.3,0.9-12.8,4.4-16.5,8.3c-4,4.2-7.2,9-7.8,13.9c-0.3,2.4,5.6,2.4,5.8,0
				c0.4-4.1,3.4-8.2,6.7-11.7c3-3.2,7.3-6.1,13.3-6.9C443.7,341.4,442.2,337.9,438.5,338.4L438.5,338.4z"/>
			<path class="st12" d="M449.1,340.6c5.6-0.9,11.5-1.2,17.3-0.6c1.6,0.1,3.1-0.2,3.6-1.3c0.4-0.9-0.5-2.1-2-2.3
				c-6.8-0.6-13.7-0.5-20.4,0.6C443.9,337.6,445.4,341.2,449.1,340.6L449.1,340.6z"/>
		</g>
	</g>
	<g>
		<g>
			<path class="st2" d="M1002.1,420.8H843.5c-4-5.5-15-23.4,3.8-33.1c4.3-2.2,8.3-3.4,12-3.9c15.8-2.3,26,7.5,26,7.5
				s-7.8-31.8,37-35.7c44.6-3.9,36.7,20.5,36.7,20.7c0.2-0.2,10.8-7.3,21.1-1.6c10.4,5.7,0,19.9,0,19.9s15.6-5.9,32.1-0.8
				C1025.2,397.7,1012,414,1002.1,420.8z"/>
		</g>
		<g>
			<path class="st1" d="M1002.1,420.8H843.5c-4-5.5-15-23.4,3.8-33.1c4.3-2.2,8.3-3.4,12-3.9c-5.8,4.8-11.2,11.2-9.7,17.7
				c3.2,13.1,29.8,16.3,29.8,16.3s4.9-20,25.6-17.5c20.4,2.4,27,10,27.2,10.2c-0.1-0.4-2.7-18.3,13.4-22.5
				c16.2-4.3,30.2,6.9,32.1,13.5c1.9,6.6,1.9,8.6,1.9,8.6s12.7-5.9,18.8-2.7C1004.7,410.7,1002.1,420.8,1002.1,420.8z"/>
		</g>
		<g>
			<path class="st12" d="M911.2,360.3c-7.3,0.9-12.8,4.4-16.5,8.3c-4,4.2-7.2,9-7.8,13.9c-0.3,2.4,5.6,2.4,5.8,0
				c0.4-4.1,3.4-8.2,6.7-11.7c3-3.2,7.3-6.1,13.3-6.9C916.4,363.4,914.9,359.8,911.2,360.3L911.2,360.3z"/>
			<path class="st12" d="M921.8,362.5c5.6-0.9,11.5-1.2,17.3-0.6c1.6,0.1,3.1-0.2,3.6-1.3c0.4-0.9-0.5-2.1-2-2.3
				c-6.8-0.6-13.7-0.5-20.4,0.6C916.6,359.5,918.1,363.1,921.8,362.5L921.8,362.5z"/>
		</g>
	</g>
	<g>
		<g>
			<path class="st2" d="M927.3,165.6h-98.7c-2.5-3.4-9.3-14.6,2.4-20.6c2.7-1.4,5.2-2.1,7.5-2.5c9.8-1.4,16.1,4.6,16.1,4.6
				s-4.8-19.8,23-22.2c27.7-2.4,22.8,12.7,22.8,12.9c0.1-0.1,6.7-4.5,13.1-1c6.5,3.6,0,12.4,0,12.4s9.7-3.7,20-0.5
				C941.6,151.3,933.4,161.4,927.3,165.6z"/>
		</g>
		<g>
			<path class="st1" d="M927.3,165.6h-98.7c-2.5-3.4-9.3-14.6,2.4-20.6c2.7-1.4,5.2-2.1,7.5-2.5c-3.6,3-7,7-6,11
				c2,8.2,18.5,10.1,18.5,10.1s3-12.4,15.9-10.9c12.7,1.5,16.8,6.2,16.9,6.4c0-0.2-1.7-11.4,8.3-14c10.1-2.7,18.8,4.3,20,8.4
				c1.2,4.1,1.2,5.4,1.2,5.4s7.9-3.7,11.7-1.7S927.3,165.6,927.3,165.6z"/>
		</g>
		<g>
			<path class="st12" d="M870.7,128c-4.5,0.6-8,2.7-10.3,5.1c-2.5,2.6-4.5,5.6-4.8,8.6c-0.2,1.5,3.5,1.5,3.6,0
				c0.3-2.6,2.1-5.1,4.2-7.3c1.9-2,4.5-3.8,8.3-4.3C874,129.9,873,127.7,870.7,128L870.7,128z"/>
			<path class="st12" d="M877.3,129.4c3.5-0.6,7.2-0.7,10.8-0.4c1,0.1,2-0.2,2.2-0.8c0.2-0.5-0.3-1.3-1.3-1.4
				c-4.3-0.4-8.5-0.3-12.7,0.4C874.1,127.6,875,129.8,877.3,129.4L877.3,129.4z"/>
		</g>
	</g>
	<g>
		<g>
			<path class="st2" d="M1111.2,287.8h-98.7c-2.5-3.4-9.3-14.6,2.4-20.6c2.7-1.4,5.2-2.1,7.5-2.5c9.8-1.4,16.1,4.6,16.1,4.6
				s-4.8-19.8,23-22.2c27.7-2.4,22.8,12.7,22.8,12.9c0.1-0.1,6.7-4.5,13.1-1c6.5,3.6,0,12.4,0,12.4s9.7-3.7,20-0.5
				C1125.5,273.5,1117.3,283.6,1111.2,287.8z"/>
		</g>
		<g>
			<path class="st1" d="M1111.2,287.8h-98.7c-2.5-3.4-9.3-14.6,2.4-20.6c2.7-1.4,5.2-2.1,7.5-2.5c-3.6,3-7,7-6,11
				c2,8.2,18.5,10.1,18.5,10.1s3-12.4,15.9-10.9c12.7,1.5,16.8,6.2,16.9,6.4c0-0.2-1.7-11.4,8.3-14c10.1-2.7,18.8,4.3,20,8.4
				c1.2,4.1,1.2,5.4,1.2,5.4s7.9-3.7,11.7-1.7C1112.8,281.6,1111.2,287.8,1111.2,287.8z"/>
		</g>
		<g>
			<path class="st12" d="M1054.6,250.2c-4.5,0.6-8,2.7-10.3,5.1c-2.5,2.6-4.5,5.6-4.8,8.6c-0.2,1.5,3.5,1.5,3.6,0
				c0.3-2.6,2.1-5.1,4.2-7.3c1.9-2,4.5-3.8,8.3-4.3C1057.9,252.1,1056.9,249.9,1054.6,250.2L1054.6,250.2z"/>
			<path class="st12" d="M1061.2,251.6c3.5-0.6,7.2-0.7,10.8-0.4c1,0.1,2-0.2,2.2-0.8c0.2-0.5-0.3-1.3-1.3-1.4
				c-4.3-0.4-8.5-0.3-12.7,0.4C1058,249.7,1058.9,252,1061.2,251.6L1061.2,251.6z"/>
		</g>
	</g>
</g>
</svg>
