<svg xmlns="http://www.w3.org/2000/svg" xmlns:xlink="http://www.w3.org/1999/xlink" viewBox="0 0 443.14 223.3"><defs><style>.cls-1{fill:none;}.cls-2{fill:#c8d3fb;}.cls-3{fill:url(#Безымянный_градиент_330);}.cls-4{fill:url(#Безымянный_градиент_330-2);}.cls-5{clip-path:url(#clip-path);}.cls-6{fill:#d5ddfb;}.cls-35,.cls-7,.cls-8,.cls-9{fill:#fff;}.cls-7{opacity:0.35;}.cls-8{opacity:0.5;}.cls-9{opacity:0.6;}.cls-10{fill:url(#Безымянный_градиент_330-3);}.cls-11{fill:#6a6ae8;}.cls-12{fill:#312890;}.cls-13{fill:url(#Безымянный_градиент_14);}.cls-14{fill:#84afe6;}.cls-15{fill:url(#Безымянный_градиент_14-2);}.cls-16{fill:#bfcbf1;}.cls-17{fill:#ffd2a7;}.cls-18{fill:#1c0a76;}.cls-19{fill:#3b31a1;}.cls-20{fill:#d35600;}.cls-21{fill:url(#Безымянный_градиент_18);}.cls-22{fill:url(#Безымянный_градиент_14-3);}.cls-23{fill:url(#Безымянный_градиент_18-2);}.cls-24{fill:#ff988c;}.cls-25{fill:#ffbc8e;}.cls-26{fill:url(#Безымянный_градиент_18-3);}.cls-27{fill:url(#Безымянный_градиент_18-4);}.cls-28{fill:url(#Безымянный_градиент_18-5);}.cls-29{fill:url(#Безымянный_градиент_330-4);}.cls-30{fill:#dae7ff;opacity:0.34;}.cls-31{fill:url(#Безымянный_градиент_330-5);}.cls-32{fill:url(#Безымянный_градиент_140);}.cls-33{fill:url(#Безымянный_градиент_330-6);}.cls-34{fill:url(#Безымянный_градиент_18-6);}.cls-36{fill:url(#Безымянный_градиент_14-4);}.cls-37{fill:url(#Безымянный_градиент_18-7);}</style><linearGradient id="Безымянный_градиент_330" x1="-14.18" y1="172.6" x2="270.32" y2="67.1" gradientUnits="userSpaceOnUse"><stop offset="0" stop-color="#fff"/><stop offset="1" stop-color="#d3dbeb"/></linearGradient><linearGradient id="Безымянный_градиент_330-2" x1="-2.27" y1="230.67" x2="254.4" y2="94" xlink:href="#Безымянный_градиент_330"/><clipPath id="clip-path" transform="translate(85.94)"><path class="cls-1" d="M1.19,106.33c-6.77,35.37,18.4,65.56,72.32,65.33s19.7,43.87,64.71,46.63,67-24.8,61.39-86S193-.65,100.26,22.07C41.74,36.4,7.54,73.18,1.19,106.33Z"/></clipPath><linearGradient id="Безымянный_градиент_330-3" x1="-25.49" y1="111.07" x2="357.19" y2="111.07" xlink:href="#Безымянный_градиент_330"/><linearGradient id="Безымянный_градиент_14" x1="56.38" y1="181.17" x2="74.51" y2="181.17" gradientUnits="userSpaceOnUse"><stop offset="0" stop-color="#6a6ae8"/><stop offset="1" stop-color="#312890"/></linearGradient><linearGradient id="Безымянный_градиент_14-2" x1="79.83" y1="186.52" x2="103.44" y2="186.52" xlink:href="#Безымянный_градиент_14"/><linearGradient id="Безымянный_градиент_18" x1="4.95" y1="149.96" x2="198.83" y2="149.96" gradientUnits="userSpaceOnUse"><stop offset="0" stop-color="#ffae00"/><stop offset="1" stop-color="#ff7800"/></linearGradient><linearGradient id="Безымянный_градиент_14-3" x1="47.77" y1="150.07" x2="151.14" y2="150.07" xlink:href="#Безымянный_градиент_14"/><linearGradient id="Безымянный_градиент_18-2" x1="200.1" y1="113.64" x2="233.69" y2="113.64" xlink:href="#Безымянный_градиент_18"/><linearGradient id="Безымянный_градиент_18-3" x1="158.72" y1="89.87" x2="212.8" y2="35.79" gradientTransform="matrix(-0.98, 0.19, 0.19, 0.98, 202.59, -12.65)" xlink:href="#Безымянный_градиент_18"/><linearGradient id="Безымянный_градиент_18-4" x1="163.18" y1="95.37" x2="194.83" y2="63.72" gradientTransform="matrix(-0.98, 0.19, 0.19, 0.98, 202.59, -12.65)" xlink:href="#Безымянный_градиент_18"/><linearGradient id="Безымянный_градиент_18-5" x1="435.98" y1="-30.72" x2="458.33" y2="-53.07" gradientTransform="matrix(-0.73, 0.69, 0.69, 0.73, 394.88, -178.53)" xlink:href="#Безымянный_градиент_18"/><linearGradient id="Безымянный_градиент_330-4" x1="-425.29" y1="102.45" x2="-386.65" y2="102.45" gradientTransform="matrix(0.99, -0.15, 0.15, 0.99, 466.65, -60.25)" xlink:href="#Безымянный_градиент_330"/><linearGradient id="Безымянный_градиент_330-5" x1="159.93" y1="85.85" x2="171.19" y2="85.85" xlink:href="#Безымянный_градиент_330"/><linearGradient id="Безымянный_градиент_140" x1="-1450.59" y1="338.65" x2="-1415.01" y2="338.65" gradientTransform="translate(1632.86 -81.21) rotate(7.35)" gradientUnits="userSpaceOnUse"><stop offset="0" stop-color="#ffd000"/><stop offset="1" stop-color="#ff7400"/></linearGradient><linearGradient id="Безымянный_градиент_330-6" x1="159.72" y1="87.23" x2="201.44" y2="87.23" gradientTransform="matrix(-1, 0, 0, 1, 306.81, 0)" xlink:href="#Безымянный_градиент_330"/><linearGradient id="Безымянный_градиент_18-6" x1="191.46" y1="58.08" x2="223.25" y2="58.08" gradientTransform="translate(414.71 116.17) rotate(-180)" xlink:href="#Безымянный_градиент_18"/><linearGradient id="Безымянный_градиент_14-4" x1="131.72" y1="9.92" x2="158.65" y2="9.92" gradientTransform="translate(290.37 19.84) rotate(-180)" xlink:href="#Безымянный_градиент_14"/><linearGradient id="Безымянный_градиент_18-7" x1="27.92" y1="19.9" x2="65.65" y2="19.9" gradientTransform="translate(93.56 39.79) rotate(-180)" xlink:href="#Безымянный_градиент_18"/></defs><g id="Слой_2" data-name="Слой 2"><g id="Layer1"><rect class="cls-2" x="92.97" y="218.49" width="183.78" height="1.4"/><path class="cls-3" d="M1.19,106.33c-6.77,35.37,18.4,65.56,72.32,65.33s19.7,43.87,64.71,46.63,67-24.8,61.39-86S193-.65,100.26,22.07C41.74,36.4,7.54,73.18,1.19,106.33Z" transform="translate(85.94)"/><path class="cls-4" d="M38.66,181c16.72-4.06,49.57-7.48,60.09,8.13s.06,21.33-18.88,13.79S15.58,186.63,38.66,181Z" transform="translate(85.94)"/><g class="cls-5"><polygon class="cls-2" points="139.93 72.86 139.93 65.35 152.38 65.35 152.38 29.47 155.81 29.47 155.81 65.35 169.22 65.35 169.22 72.86 176.41 72.86 176.41 223.3 124.6 223.3 124.6 72.86 139.93 72.86"/><rect class="cls-6" x="38.66" y="72.86" width="7.18" height="135.33" transform="translate(170.44 281.04) rotate(180)"/><rect class="cls-2" x="64.56" y="108.7" width="51.81" height="114.6" transform="translate(266.87 331.99) rotate(180)"/><rect class="cls-6" x="64.56" y="108.7" width="7.18" height="114.6" transform="translate(222.25 331.99) rotate(180)"/><rect class="cls-6" x="101.71" y="113.58" width="7.44" height="3.09" transform="translate(296.79 230.24) rotate(180)"/><rect class="cls-6" x="89.19" y="113.58" width="7.43" height="3.09" transform="translate(271.76 230.24) rotate(180)"/><rect class="cls-6" x="101.71" y="124.81" width="7.44" height="3.08" transform="translate(296.79 252.71) rotate(180)"/><rect class="cls-6" x="89.19" y="124.81" width="7.43" height="3.08" transform="translate(271.76 252.71) rotate(180)"/><rect class="cls-6" x="76.67" y="124.81" width="7.43" height="3.08" transform="translate(246.72 252.71) rotate(180)"/><rect class="cls-6" x="101.71" y="136.05" width="7.44" height="3.09" transform="translate(296.79 275.18) rotate(180)"/><rect class="cls-6" x="76.67" y="136.05" width="7.43" height="3.09" transform="translate(246.72 275.18) rotate(180)"/><rect class="cls-6" x="89.19" y="141.66" width="7.43" height="3.09" transform="translate(271.76 286.41) rotate(180)"/><rect class="cls-6" x="101.71" y="147.28" width="7.44" height="3.08" transform="translate(296.79 297.65) rotate(180)"/><rect class="cls-6" x="89.19" y="152.9" width="7.43" height="3.09" transform="translate(271.76 308.88) rotate(180)"/><rect class="cls-6" x="101.71" y="158.52" width="7.44" height="3.09" transform="translate(296.79 320.12) rotate(180)"/><rect class="cls-6" x="76.67" y="158.52" width="7.43" height="3.09" transform="translate(246.72 320.12) rotate(180)"/><rect class="cls-6" x="101.71" y="168.9" width="7.44" height="3.09" transform="translate(296.79 340.88) rotate(180)"/><rect class="cls-6" x="89.19" y="168.9" width="7.43" height="3.09" transform="translate(271.76 340.88) rotate(180)"/><rect class="cls-6" x="101.71" y="180.13" width="7.44" height="3.08" transform="translate(296.79 363.35) rotate(180)"/><rect class="cls-6" x="89.19" y="180.13" width="7.43" height="3.08" transform="translate(271.76 363.35) rotate(180)"/><rect class="cls-6" x="76.67" y="180.13" width="7.43" height="3.08" transform="translate(246.72 363.35) rotate(180)"/><rect class="cls-6" x="101.71" y="191.37" width="7.44" height="3.09" transform="translate(296.79 385.82) rotate(180)"/><rect class="cls-6" x="76.67" y="191.37" width="7.43" height="3.09" transform="translate(246.72 385.82) rotate(180)"/><rect class="cls-6" x="89.19" y="196.99" width="7.43" height="3.09" transform="translate(271.76 397.06) rotate(180)"/><rect class="cls-6" x="76.67" y="196.99" width="7.43" height="3.09" transform="translate(246.72 397.06) rotate(180)"/><rect class="cls-6" x="101.71" y="202.6" width="7.44" height="3.09" transform="translate(296.79 408.29) rotate(180)"/><rect class="cls-6" x="89.19" y="208.22" width="7.43" height="3.08" transform="translate(271.76 419.53) rotate(180)"/><rect class="cls-6" x="101.71" y="213.84" width="7.44" height="3.09" transform="translate(296.79 430.76) rotate(180)"/><rect class="cls-6" x="76.67" y="213.84" width="7.43" height="3.09" transform="translate(246.72 430.76) rotate(180)"/><rect class="cls-2" x="188.53" y="108.7" width="51.81" height="114.6" transform="translate(514.8 331.99) rotate(180)"/><rect class="cls-6" x="188.53" y="108.7" width="7.18" height="114.6" transform="translate(470.18 331.99) rotate(180)"/><rect class="cls-2" x="114.93" y="54.18" width="69.51" height="169.11" transform="translate(385.31 277.48) rotate(180)"/><rect class="cls-6" x="114.93" y="54.18" width="7.18" height="169.11" transform="translate(322.98 277.48) rotate(180)"/><rect class="cls-6" x="166.26" y="62.28" width="10.86" height="4.51" transform="translate(429.32 129.07) rotate(180)"/><rect class="cls-6" x="147.98" y="62.28" width="10.86" height="4.51" transform="translate(392.77 129.07) rotate(180)"/><rect class="cls-6" x="166.26" y="78.69" width="10.86" height="4.51" transform="translate(429.32 161.89) rotate(180)"/><rect class="cls-6" x="147.98" y="78.69" width="10.86" height="4.51" transform="translate(392.77 161.89) rotate(180)"/><rect class="cls-6" x="129.71" y="78.69" width="10.86" height="4.51" transform="translate(356.21 161.89) rotate(180)"/><rect class="cls-6" x="166.26" y="95.1" width="10.86" height="4.51" transform="translate(429.32 194.7) rotate(180)"/><rect class="cls-6" x="129.71" y="95.1" width="10.86" height="4.51" transform="translate(356.21 194.7) rotate(180)"/><rect class="cls-6" x="147.98" y="103.3" width="10.86" height="4.51" transform="translate(392.77 211.1) rotate(180)"/><rect class="cls-6" x="166.26" y="111.5" width="10.86" height="4.51" transform="translate(429.32 227.51) rotate(180)"/><rect class="cls-6" x="147.98" y="119.71" width="10.86" height="4.51" transform="translate(392.77 243.92) rotate(180)"/><rect class="cls-6" x="166.26" y="127.91" width="10.86" height="4.51" transform="translate(429.32 260.32) rotate(180)"/><rect class="cls-6" x="129.71" y="127.91" width="10.86" height="4.51" transform="translate(356.21 260.32) rotate(180)"/><rect class="cls-6" x="166.26" y="143.07" width="10.86" height="4.51" transform="translate(429.32 290.64) rotate(180)"/><rect class="cls-6" x="147.98" y="143.07" width="10.86" height="4.51" transform="translate(392.77 290.64) rotate(180)"/><rect class="cls-6" x="166.26" y="159.48" width="10.86" height="4.51" transform="translate(429.32 323.46) rotate(180)"/><rect class="cls-6" x="147.98" y="159.48" width="10.86" height="4.51" transform="translate(392.77 323.46) rotate(180)"/><rect class="cls-6" x="129.71" y="159.48" width="10.86" height="4.51" transform="translate(356.21 323.46) rotate(180)"/><rect class="cls-6" x="166.26" y="175.88" width="10.86" height="4.51" transform="translate(429.32 356.27) rotate(180)"/><rect class="cls-6" x="129.71" y="175.88" width="10.86" height="4.51" transform="translate(356.21 356.27) rotate(180)"/><rect class="cls-6" x="147.98" y="184.08" width="10.86" height="4.51" transform="translate(392.77 372.67) rotate(180)"/><rect class="cls-6" x="129.71" y="184.08" width="10.86" height="4.51" transform="translate(356.21 372.67) rotate(180)"/><rect class="cls-6" x="166.26" y="192.29" width="10.86" height="4.51" transform="translate(429.32 389.08) rotate(180)"/><rect class="cls-6" x="147.98" y="200.49" width="10.86" height="4.51" transform="translate(392.77 405.49) rotate(180)"/><rect class="cls-6" x="166.26" y="208.69" width="10.86" height="4.51" transform="translate(429.32 421.89) rotate(180)"/><rect class="cls-6" x="129.71" y="208.69" width="10.86" height="4.51" transform="translate(356.21 421.89) rotate(180)"/><rect class="cls-2" x="224.22" y="66.79" width="68.13" height="156.51" transform="translate(602.51 290.09) rotate(180)"/><rect class="cls-6" x="224.22" y="66.79" width="7.04" height="156.51" transform="translate(541.42 290.09) rotate(180)"/><rect class="cls-6" x="274.53" y="74.29" width="10.64" height="4.17" transform="translate(645.65 152.74) rotate(180)"/><rect class="cls-6" x="256.62" y="74.29" width="10.64" height="4.17" transform="translate(609.82 152.74) rotate(180)"/><rect class="cls-6" x="274.53" y="89.47" width="10.64" height="4.17" transform="translate(645.65 183.11) rotate(180)"/><rect class="cls-6" x="256.62" y="89.47" width="10.64" height="4.17" transform="translate(609.82 183.11) rotate(180)"/><rect class="cls-6" x="238.7" y="89.47" width="10.64" height="4.17" transform="translate(573.99 183.11) rotate(180)"/><rect class="cls-6" x="274.53" y="104.65" width="10.64" height="4.17" transform="translate(645.65 213.47) rotate(180)"/><rect class="cls-6" x="238.7" y="104.65" width="10.64" height="4.17" transform="translate(573.99 213.47) rotate(180)"/><rect class="cls-6" x="256.62" y="112.24" width="10.64" height="4.17" transform="translate(609.82 228.66) rotate(180)"/><rect class="cls-6" x="274.53" y="119.84" width="10.64" height="4.17" transform="translate(645.65 243.84) rotate(180)"/><rect class="cls-6" x="256.62" y="127.43" width="10.64" height="4.17" transform="translate(609.82 259.02) rotate(180)"/><rect class="cls-6" x="274.53" y="135.02" width="10.64" height="4.17" transform="translate(645.65 274.21) rotate(180)"/><rect class="cls-6" x="238.7" y="135.02" width="10.64" height="4.17" transform="translate(573.99 274.21) rotate(180)"/><rect class="cls-6" x="274.53" y="149.05" width="10.64" height="4.17" transform="translate(645.65 302.27) rotate(180)"/><rect class="cls-6" x="256.62" y="149.05" width="10.64" height="4.17" transform="translate(609.82 302.27) rotate(180)"/><rect class="cls-6" x="274.53" y="164.23" width="10.64" height="4.17" transform="translate(645.65 332.63) rotate(180)"/><rect class="cls-6" x="256.62" y="164.23" width="10.64" height="4.17" transform="translate(609.82 332.63) rotate(180)"/><rect class="cls-6" x="238.7" y="164.23" width="10.64" height="4.17" transform="translate(573.99 332.63) rotate(180)"/><rect class="cls-6" x="274.53" y="179.42" width="10.64" height="4.17" transform="translate(645.65 363) rotate(180)"/><rect class="cls-6" x="238.7" y="179.42" width="10.64" height="4.17" transform="translate(573.99 363) rotate(180)"/><rect class="cls-6" x="256.62" y="187.01" width="10.64" height="4.17" transform="translate(609.82 378.18) rotate(180)"/><rect class="cls-6" x="238.7" y="187.01" width="10.64" height="4.17" transform="translate(573.99 378.18) rotate(180)"/><rect class="cls-6" x="274.53" y="194.6" width="10.64" height="4.17" transform="translate(645.65 393.37) rotate(180)"/><rect class="cls-6" x="256.62" y="202.19" width="10.64" height="4.17" transform="translate(609.82 408.55) rotate(180)"/><rect class="cls-6" x="274.53" y="209.78" width="10.64" height="4.17" transform="translate(645.65 423.73) rotate(180)"/><rect class="cls-6" x="238.7" y="209.78" width="10.64" height="4.17" transform="translate(573.99 423.73) rotate(180)"/><rect class="cls-2" x="4.04" y="116.55" width="43.88" height="106.75" transform="translate(137.89 339.85) rotate(180)"/><rect class="cls-6" x="4.04" y="116.55" width="4.54" height="106.75" transform="translate(98.55 339.85) rotate(180)"/><rect class="cls-6" x="36.44" y="121.66" width="6.85" height="2.84" transform="translate(165.68 246.17) rotate(180)"/><rect class="cls-6" x="24.9" y="121.66" width="6.85" height="2.84" transform="translate(142.6 246.17) rotate(180)"/><rect class="cls-6" x="36.44" y="132.02" width="6.85" height="2.84" transform="translate(165.68 266.88) rotate(180)"/><rect class="cls-6" x="24.9" y="132.02" width="6.85" height="2.84" transform="translate(142.6 266.88) rotate(180)"/><rect class="cls-6" x="13.37" y="132.02" width="6.85" height="2.84" transform="translate(119.53 266.88) rotate(180)"/><rect class="cls-6" x="36.44" y="142.37" width="6.85" height="2.84" transform="translate(165.68 287.59) rotate(180)"/><rect class="cls-6" x="13.37" y="142.37" width="6.85" height="2.84" transform="translate(119.53 287.59) rotate(180)"/><rect class="cls-6" x="24.9" y="147.55" width="6.85" height="2.84" transform="translate(142.6 297.95) rotate(180)"/><rect class="cls-6" x="36.44" y="152.73" width="6.85" height="2.84" transform="translate(165.68 308.3) rotate(180)"/><rect class="cls-6" x="24.9" y="157.91" width="6.85" height="2.84" transform="translate(142.6 318.66) rotate(180)"/><rect class="cls-6" x="36.44" y="163.08" width="6.85" height="2.84" transform="translate(165.68 329.01) rotate(180)"/><rect class="cls-6" x="13.37" y="163.08" width="6.85" height="2.84" transform="translate(119.53 329.01) rotate(180)"/><rect class="cls-6" x="36.44" y="172.66" width="6.85" height="2.84" transform="translate(165.68 348.15) rotate(180)"/><rect class="cls-6" x="24.9" y="172.66" width="6.85" height="2.84" transform="translate(142.6 348.15) rotate(180)"/><rect class="cls-6" x="36.44" y="183.01" width="6.85" height="2.84" transform="translate(165.68 368.87) rotate(180)"/><rect class="cls-6" x="24.9" y="183.01" width="6.85" height="2.84" transform="translate(142.6 368.87) rotate(180)"/><rect class="cls-6" x="13.37" y="183.01" width="6.85" height="2.84" transform="translate(119.53 368.87) rotate(180)"/><rect class="cls-6" x="36.44" y="193.37" width="6.85" height="2.84" transform="translate(165.68 389.58) rotate(180)"/><rect class="cls-6" x="13.37" y="193.37" width="6.85" height="2.84" transform="translate(119.53 389.58) rotate(180)"/><rect class="cls-6" x="24.9" y="198.54" width="6.85" height="2.84" transform="translate(142.6 399.93) rotate(180)"/><rect class="cls-6" x="13.37" y="198.54" width="6.85" height="2.84" transform="translate(119.53 399.93) rotate(180)"/><rect class="cls-6" x="36.44" y="203.72" width="6.85" height="2.84" transform="translate(165.68 410.29) rotate(180)"/><rect class="cls-6" x="24.9" y="208.9" width="6.85" height="2.84" transform="translate(142.6 420.65) rotate(180)"/><rect class="cls-6" x="36.44" y="214.08" width="6.85" height="2.84" transform="translate(165.68 431) rotate(180)"/><rect class="cls-6" x="13.37" y="214.08" width="6.85" height="2.84" transform="translate(119.53 431) rotate(180)"/><rect class="cls-7" y="2.3" width="185.96" height="212.03"/><polygon class="cls-8" points="126.5 210.49 112.07 210.49 189.44 4.72 203.87 4.72 126.5 210.49"/><polygon class="cls-8" points="101.02 210.49 93.81 210.49 171.17 4.72 178.39 4.72 101.02 210.49"/><polygon class="cls-8" points="187.19 210.49 179.97 210.49 246.3 26.81 246.3 41.61 187.19 210.49"/><rect class="cls-7" x="187.96" y="2.52" width="185.96" height="212.03"/><polygon class="cls-8" points="280.18 210.49 265.75 210.49 343.11 4.72 357.55 4.72 280.18 210.49"/><polygon class="cls-8" points="254.69 210.49 247.48 210.49 324.85 4.72 332.06 4.72 254.69 210.49"/><polygon class="cls-9" points="373.16 210.49 365.95 210.49 432.28 26.81 432.28 41.61 373.16 210.49"/><path class="cls-10" d="M357.19,42.92V40.49h-6.68V2.25h-376V7.1h4V8.81H98.48V40.49h-124v2.43h124v62.26h-124v2.43h124v62.27h-124v2.42h124v40.57H-21.4v1.41h-4.09v5.61h376v-.45h0V172.3h6.68v-2.42h-6.68V107.61h6.68v-2.43h-6.68V42.92ZM164.55,107.61h57.92v62.27H164.55Zm0-2.43V42.92h57.92v62.26Zm0-64.69V8.81h57.92V40.49Zm0,131.81h57.92v40.57h-57.9v1.41h0Zm62,40.57V172.3h57.92v40.57Zm0-43V107.61h57.92v62.27Zm0-64.7V42.92h57.92v62.26Zm0-64.69V8.81h57.92V40.49Zm62-31.68h57.92V40.49H288.53Zm-186,0h57.92V40.49H102.55Zm0,34.11h57.92v62.26H102.55Zm0,64.69h57.92v62.27H102.55Zm0,64.69h57.92v42h0v-1.41h-57.9Zm243.9,42h0v-1.41H288.53V172.3h57.92Zm0-44.4H288.53V107.61h57.92Zm0-64.7H288.53V42.92h57.92Z" transform="translate(85.94)"/></g><path class="cls-11" d="M83.32,169.35a5.53,5.53,0,0,0,3.16-1,26.93,26.93,0,0,1-.47,5.81c-1.24,2-4.69,5.69-4.46,5.67a10.86,10.86,0,0,0,2.77-.65,19.91,19.91,0,0,1-2.11,3.45c-1.67,2.23-4.06,4-5,6.74a.19.19,0,0,1-.11.12c0,.15-.18.27-.32.14-4.5-4.27-5.31-10.76-6-16.62l-.09-.83a18.14,18.14,0,0,0,4.15,3.24c.22.12-2.82-4.74-4.3-7a13,13,0,0,1,.77-4.15,34.74,34.74,0,0,1,4.61-7.9c.07-.1.16-.19.23-.29a13.5,13.5,0,0,0,1.93,3.51,40.72,40.72,0,0,0-.6-5.27c.44-.54.88-1.09,1.34-1.62.6-.7,1.34-1.9,2.42-1.74s3.42,4.43,3.73,5.65c.13.53.24,1.06.35,1.6,0,.23.09.46.14.69a65.55,65.55,0,0,1,.8,6.52c-.08.12-.15.23-.24.35C85.22,166.93,83.1,169.35,83.32,169.35Z" transform="translate(85.94)"/><path class="cls-12" d="M79.21,167.19c2.23-.33,3.92-1.73,5.55-3.18.25-.22-.05-.63-.3-.41-1.53,1.36-3.12,2.71-5.19,3.06.47-3.3,1-6.6,1.67-9.88a.25.25,0,0,0-.5-.08q-1.29,6.53-2.11,13.11a22,22,0,0,1-2.94-5.9c-.1-.31-.57-.12-.47.19a22.42,22.42,0,0,0,3.15,6.23.24.24,0,0,0,.19.11q-.18,1.44-.33,2.88a13.66,13.66,0,0,1-2.18-3.82.25.25,0,0,0-.47.19,13.85,13.85,0,0,0,2.48,4.23.35.35,0,0,0,.1.08c-.32,3.16-.57,6.34-.74,9.52l0,.1C77,184.79,77,186,77,187.11l-.06,2.28a.22.22,0,0,0,.07.17,111.36,111.36,0,0,0,2.7,21.26l.5-.11a104.94,104.94,0,0,1-2.69-24.07c0-.86.07-1.71.11-2.57a.2.2,0,0,0,.22,0,8.26,8.26,0,0,0,2.33-2.38c.18-.27-.22-.59-.4-.31a8,8,0,0,1-2.13,2.21q.43-8.22,1.57-16.37Z" transform="translate(85.94)"/><path class="cls-13" d="M61.56,181.92a5.59,5.59,0,0,1-3,.25,18.58,18.58,0,0,0,2.09,4.21c1.63,1.1,5.64,2.74,5.43,2.8a11.05,11.05,0,0,1-2.54.42,16.41,16.41,0,0,0,2.8,1.9c2.07,1.13,4.61,1.68,6.17,3.43a.19.19,0,0,0,.13.06.18.18,0,0,0,.32,0c2.58-4.69,1.38-9.83.24-14.45,0-.22-.11-.43-.17-.65a16.09,16.09,0,0,1-2.58,3.79c-.15.17,1-4.48,1.63-6.65a9.34,9.34,0,0,0-1.87-2.87A27.18,27.18,0,0,0,64,169.74c-.09-.05-.19-.09-.28-.15a10.46,10.46,0,0,1-.62,3.28,29.9,29.9,0,0,1-1-4.16c-.53-.26-1.06-.53-1.61-.77-.71-.34-1.69-1-2.56-.52s-1.63,4.46-1.53,5.48c0,.43.1.87.16,1.31l.09.57a47.16,47.16,0,0,0,1.21,5.16l.3.18A37.11,37.11,0,0,1,61.56,181.92Z" transform="translate(85.94)"/><path class="cls-12" d="M76.7,211.88A79.71,79.71,0,0,0,72.82,195a.21.21,0,0,0,0-.16l-.71-1.68c-.35-.87-.73-1.73-1.12-2.59l-.06-.07c-1.06-2.33-2.2-4.63-3.39-6.91a.2.2,0,0,0,.06-.09,11,11,0,0,0,.88-4c0-.27-.45-.26-.45,0a11,11,0,0,1-.75,3.59l-1.11-2.06a.24.24,0,0,0,.12-.14,17.11,17.11,0,0,0,.87-5.72c0-.27-.46-.26-.46,0a16.76,16.76,0,0,1-.78,5.41q-2.61-4.68-5.6-9.16c-.14-.22-.55,0-.4.22,1.5,2.25,2.93,4.55,4.29,6.88a10.23,10.23,0,0,1-5.3-.6.22.22,0,0,0-.14.41,10.55,10.55,0,0,0,5.64.57h0c2.22,3.83,4.26,7.76,6.09,11.78a7,7,0,0,1-2.45-1c-.24-.15-.48.22-.25.37a7.31,7.31,0,0,0,2.67,1,.26.26,0,0,0,.2-.05l.84,1.89a75.87,75.87,0,0,1,4.71,19Z" transform="translate(85.94)"/><path class="cls-14" d="M60.51,175.75a11.52,11.52,0,0,1-4-1.54l.09.57a12.26,12.26,0,0,0,3.73,1.38C60.65,176.21,60.79,175.81,60.51,175.75Z" transform="translate(85.94)"/><path class="cls-15" d="M103.44,179.57c0,1.83-4.26,2.72-5.6,3.21-3,1.11-5.89,2.22-8.09,4.61a98.88,98.88,0,0,0-7.07,9.2.52.52,0,0,1-.53.22,8.86,8.86,0,0,1-.61-1.33c-.77-1.9-2-5.39-1.66-7.37a11.79,11.79,0,0,1,1.35-4,3.53,3.53,0,0,0,.84,1.67,32.84,32.84,0,0,0,.49-3.68c.2-.25.4-.48.61-.7A13.46,13.46,0,0,1,84.73,180l.36-.27a16.88,16.88,0,0,1,1.43-.95l.4-.23c.46-.25.93-.49,1.42-.7a9.71,9.71,0,0,0,.79,2.61,17.44,17.44,0,0,0,.31-3.05c.46-.18.93-.32,1.41-.46a7.35,7.35,0,0,0,.58,1.69,9.34,9.34,0,0,0,.92-2,18.43,18.43,0,0,1,4.54-.36l.38,0c.41,0,.81.08,1.21.14,1.46.23,4.89,1.15,5,3.12C103.45,179.53,103.44,179.55,103.44,179.57Z" transform="translate(85.94)"/><path class="cls-12" d="M87.15,184.38c-3.6,3.55-4.72,10.08-5,11.93a8.47,8.47,0,0,0-.74,2.41,53.61,53.61,0,0,0-.23,9c0,1,.07,1.94.12,2.91l.5-.09c0-.61-.06-1.22-.08-1.84-.09-2.64-.09-5.28,0-7.92a11.75,11.75,0,0,1,.72-4,.75.75,0,0,0,.16-.15,98.88,98.88,0,0,1,7.07-9.2c2.2-2.39,5.11-3.5,8.09-4.61,1.34-.49,5.58-1.38,5.6-3.21C97.8,180.23,91.29,180.29,87.15,184.38Z" transform="translate(85.94)"/><path class="cls-12" d="M87,182.64a11.48,11.48,0,0,1-.08-4.09l-.4.23a12.14,12.14,0,0,0,.11,3.94C86.68,183,87,182.87,87,182.64Z" transform="translate(85.94)"/><path class="cls-12" d="M85.62,183.37a15.54,15.54,0,0,1-.53-3.64l-.36.27a16.07,16.07,0,0,0,.52,3.45C85.32,183.68,85.68,183.6,85.62,183.37Z" transform="translate(85.94)"/><path class="cls-2" d="M91.64,207.83a13.16,13.16,0,0,1-5.47,10.7H70.68a13.16,13.16,0,0,1-5.17-7.93,12.64,12.64,0,0,1-.3-2.77,13,13,0,0,1,.32-2.88,12.63,12.63,0,0,1,.73-2.28H90.59a12.63,12.63,0,0,1,.73,2.28A13,13,0,0,1,91.64,207.83Z" transform="translate(85.94)"/><path class="cls-16" d="M91.64,207.83a13.16,13.16,0,0,1-5.47,10.7H70.68c20.25,1,19.91-15.86,19.91-15.86a12.63,12.63,0,0,1,.73,2.28A13,13,0,0,1,91.64,207.83Z" transform="translate(85.94)"/><path class="cls-17" d="M17.46,214.12c4-1.32,5.94-7.75,6.87-11.2l4.19,1.62s-2.08,6.28-1.83,10.29-.9,3.64-.9,3.64H12.14A8.91,8.91,0,0,1,17.46,214.12Z" transform="translate(85.94)"/><path class="cls-18" d="M17.46,214.12a6.59,6.59,0,0,0,3.09-2.37c.56-.78,3.28.08,3.73,1.6a3.92,3.92,0,0,0,2.39.67,7.18,7.18,0,0,0,0,.81c.24,4-.9,3.64-.9,3.64H12.14A8.91,8.91,0,0,1,17.46,214.12Z" transform="translate(85.94)"/><path class="cls-19" d="M28.3,168.54c.43-1.76.63-3,.92-4.83,1.24-7.61,9.17-1.34,8.9.68-.34,2.54-1.13,3.82-1.82,12.63a50.42,50.42,0,0,1-4.49,17.83A58,58,0,0,0,29,205.1c-4.13.9-5.53-.63-5.53-.63s.94-9.39,1.39-17S27.29,172.66,28.3,168.54Z" transform="translate(85.94)"/><path class="cls-20" d="M76.54,163.76c-9,10.31-19,13.64-24.67,14.71h0a27.36,27.36,0,0,1-4.18.5,29.09,29.09,0,0,1,.19-58v0a31.26,31.26,0,0,1,4.12.52,43.33,43.33,0,0,1,24,14l2.6-4.84,5.86-10.88,3.81-2a63.35,63.35,0,0,0-36.37-17.64h0c-1.73-.21-3.08-.28-4-.3h0l-1.09.06a50.21,50.21,0,0,0,0,100.18h1.1c.84,0,2.12-.08,3.74-.26A63.21,63.21,0,0,0,87.33,183l-13-4.07Zm73.09-63.62c-.84-.1-1.68-.18-2.53-.24a6.91,6.91,0,0,0-1-.06H146a60,60,0,0,0-27,8l2.49,3.22,10.62,13.73A37.42,37.42,0,0,1,146,121v0a28.46,28.46,0,0,1,3.49.49,29.1,29.1,0,0,1,.13,57h0a29.65,29.65,0,0,1-3.42.5c-2.58-.09-15.28-1.16-26.89-13.08l-10.51,11.5L105,181.52c17,16.85,36.16,18.44,41,18.56h1.1c.93-.06,1.85-.15,2.77-.26a50.21,50.21,0,0,0-.24-99.68Z" transform="translate(85.94)"/><path class="cls-18" d="M146.19,179s-23.9-.14-37.74-29c-1-2.18-2.08-4.32-3.12-6.43h0C98.3,126,87,116.36,86.73,116.16a55.8,55.8,0,0,0-5.83-4.72h0l-.1-.06c-.84-.59-1.7-1.16-2.6-1.72-14.79-9.33-27.09-9.61-27.09-9.61l-8.3,12,7.73,9.2a45.17,45.17,0,0,1,21,10.22A57,57,0,0,1,85.44,150q2.24,4.69,4.49,9h0s8,19.6,21.68,28.49h0a54.79,54.79,0,0,0,13.7,7.88h0A55.61,55.61,0,0,0,146,200.08l-5.39-9.78Z" transform="translate(85.94)"/><polygon class="cls-20" points="195.16 128.24 228.74 130.42 207.32 96.86 195.16 128.24"/><path class="cls-18" d="M146,200.08a39.19,39.19,0,0,0,4.95,0l-1.5-1.36-5,.28Z" transform="translate(85.94)"/><polygon class="cls-20" points="207.32 96.86 212.27 96.86 219.9 117 233.69 130.42 228.74 130.42 207.32 96.86"/><polygon class="cls-20" points="162.48 163.76 167.43 163.76 164.25 171.22 158.3 172.82 162.48 163.76"/><path class="cls-21" d="M81.49,163.76c-8.95,10.31-19,13.64-24.67,14.71h0a27.36,27.36,0,0,1-4.18.5,29.09,29.09,0,0,1,.19-58v0a31.26,31.26,0,0,1,4.12.52,43.33,43.33,0,0,1,24,14l2.6-4.84,5.86-10.88,3.81-2a63.35,63.35,0,0,0-36.37-17.64h0c-1.73-.21-3.09-.28-4-.3h0l-1.09.06a50.21,50.21,0,0,0,0,100.18h1.1c.84,0,2.12-.08,3.74-.26A63.21,63.21,0,0,0,92.28,183l-13-4.07Zm73.09-63.62c-.84-.1-1.68-.18-2.53-.24a6.91,6.91,0,0,0-1-.06H151a60,60,0,0,0-27,8L126.4,111,137,124.76A37.42,37.42,0,0,1,151,121v0a28.46,28.46,0,0,1,3.49.49,29.1,29.1,0,0,1,.13,57h0a29.65,29.65,0,0,1-3.42.5c-2.58-.09-15.29-1.16-26.89-13.08l-10.51,11.5L110,181.52c17,16.85,36.16,18.44,41,18.56h1.1c.93-.06,1.85-.15,2.77-.26a50.21,50.21,0,0,0-.24-99.68Z" transform="translate(85.94)"/><path class="cls-22" d="M151.14,179s-23.89-.14-37.74-29c-1.05-2.18-2.08-4.32-3.12-6.43h0c-7-17.53-18.37-27.17-18.61-27.37a54.65,54.65,0,0,0-5.82-4.72h0l-.1-.06c-.84-.59-1.71-1.16-2.6-1.72-14.79-9.33-27.09-9.61-27.09-9.61l-8.3,12,7.73,9.2a43,43,0,0,1,21,9.94A58.41,58.41,0,0,1,90.38,150c1.5,3.13,3,6.13,4.5,9h0s8.05,19.6,21.68,28.49h0a54.79,54.79,0,0,0,13.7,7.88h0A58.26,58.26,0,0,0,151,200.08l-5.39-9.78Z" transform="translate(85.94)"/><polygon class="cls-23" points="200.1 128.24 233.69 130.42 212.27 96.86 200.1 128.24"/><path class="cls-17" d="M67.11,155.23,71.3,157c-2.58,4.48-3.5,8.74,3.78,8.74,3.36,0-2.72,4-2.72,4H61.85s-1.73-.7.78-4.78A53.5,53.5,0,0,0,67.11,155.23Z" transform="translate(85.94)"/><path class="cls-18" d="M68.05,166c1.1-1-.11-2.94,1.43-3,.28,1.38,1.53,2.25,3.7,2.63.24,0,.11-.05.6-.43,2.64-2.07,5.47.81,5.47.81l-6.46,3.77H61.85s-1.63-.66.55-4.41C64.23,165.35,66.4,167.55,68.05,166Z" transform="translate(85.94)"/><path class="cls-19" d="M43.15,116.18c12.58-2.1,36-2.7,37.43-2.2,1.73.58,6,4.92-.55,9.31-5.42,3.67-35.19,20-42.7,4.34C34.58,121.89,39.32,116.82,43.15,116.18Z" transform="translate(85.94)"/><path class="cls-18" d="M36.53,124.55c28,8.49,44.47-4.37,46.23-5.21-.88,1.23-.7,2.58-2.73,4-5.42,3.67-35.19,20-42.7,4.34A8.14,8.14,0,0,1,36.53,124.55Z" transform="translate(85.94)"/><path class="cls-19" d="M83.42,117.34c1.47,2.5-12.63,43.08-12.63,43.08-4.19.46-6.19-1.59-6.19-1.59S67.85,146.69,68,139.1C68.87,105.28,82.39,115.58,83.42,117.34Z" transform="translate(85.94)"/><path class="cls-19" d="M48.33,131.74c-1.47,8.64-10.31,29.92-11,36.32,0,.19-.05.36-.07.54a57.36,57.36,0,0,1-8-5.34c.78-10.78-.26-30,1.69-36.53a31.66,31.66,0,0,1,7.21-12.42c2.14-2,7.61-2.73,9.34,1.66S49.82,123.11,48.33,131.74Z" transform="translate(85.94)"/><path class="cls-18" d="M47.23,63.09a4.45,4.45,0,1,1-5.51,3A4.45,4.45,0,0,1,47.23,63.09Z" transform="translate(85.94)"/><path class="cls-18" d="M36.34,84.15c1.75-4.32-.19-7.81,3.56-12.24s6.49-4.25,9.17-4.32c6.8-.19,11.31,9.4,7.39,14.29-3.62,4.53-1.55,6.2.64,10.56s3.2,18.22-8.81,19.53-14.8-3.8-16.06-11.11C30.73,92.11,34.59,88.47,36.34,84.15Z" transform="translate(85.94)"/><path class="cls-17" d="M50.7,93.12c.36,1.47,5.09,19.14,6.55,21.11,1.71,2.3,4.82.32,5-3s-2.15-16.25-4.58-20C55,87.06,49.92,90,50.7,93.12Z" transform="translate(85.94)"/><path class="cls-24" d="M51.31,92.56c8.88,4.87,10.86,17.73,10.93,18.62.15-3.26-2.15-16.24-4.58-20S51.08,92.43,51.31,92.56Z" transform="translate(85.94)"/><path class="cls-25" d="M39.7,106.41c-.15-1.88-.77-3.63-2.27-10.16-.59-2.54-1.32-4.53-.65-5.64.85-1.4,3.37-1.55,5.17-1.49,3.24.1,1.93-7.77,1.93-7.77.55-1.61,5.93-1.16,5.51,4.05s4.81,3,6,4c1.64,1.38,1.42,4.27,1.71,5.82s2.51,3.45,2.11,6.27a2.93,2.93,0,0,1-3.08,2.64,9,9,0,0,0-2.08,4.45,14.83,14.83,0,0,0,1.2,6.61,23.1,23.1,0,0,1-17.62,0S40.17,112.06,39.7,106.41Z" transform="translate(85.94)"/><path class="cls-25" d="M42,89.12c3.24.1,1.93-7.77,1.93-7.77.3-.89,2.1-1.15,3.56-.31-1,.23-3.56,4.58-2.32,11.1.35,1.85,2.3,3,4.12,3.42,0,0-11.59,1.65-11.81.69C36.84,93.71,40.15,89.06,42,89.12Z" transform="translate(85.94)"/><path class="cls-26" d="M62.28,106.83a20.73,20.73,0,0,1-6.84,3.77l-1.68-5.09.34-16.44s2.8-.47,4.49,3.33S61.48,104.68,62.28,106.83Z" transform="translate(85.94)"/><path class="cls-20" d="M53.93,105.85l.3-14.91c.08-.44.18-1.42.2-1.89a2.86,2.86,0,0,1,1.73.85c1.64,1.38,1.41,4.28,1.7,5.83S60.38,99.17,60,102s-2.27,3.31-2.27,3.31a10.46,10.46,0,0,0-2.52,4.2Z" transform="translate(85.94)"/><path class="cls-27" d="M39.71,106.41c-.16-1.88-.78-3.63-2.28-10.15-.59-2.55-1.32-4.54-.65-5.65.76-1.26,2.88-1.51,4.6-1.5,1.94,4.42,5.95,7,9,5.66,2-.83,3.12-3,3.2-5.71a3.09,3.09,0,0,1,1.78.32c1.64,1.38,1.42,4.28,1.71,5.82s2.51,3.45,2.11,6.27a2.93,2.93,0,0,1-3.08,2.64,9,9,0,0,0-2.08,4.45,14.89,14.89,0,0,0,1.2,6.62,23.13,23.13,0,0,1-17.62-.06S40.17,112.06,39.71,106.41Z" transform="translate(85.94)"/><path class="cls-20" d="M39.71,106.41c-.16-1.88-.78-3.63-2.28-10.15-.59-2.55-1.32-4.54-.65-5.65s2.74-1.49,4.42-1.5c0,.28.08.56.13.85a10.64,10.64,0,0,0,6.62,8l-1.9.36A4.09,4.09,0,0,0,43,103.13a4,4,0,0,0,2.95,3l.86,4.51a4.82,4.82,0,0,1-5.82,5.6,17.76,17.76,0,0,1-3.35-1.12S40.17,112.06,39.71,106.41Z" transform="translate(85.94)"/><path class="cls-17" d="M21.31,107c1.05-2.38,13.25-14.36,15.75-16.73.89-.84,5.35,4.51,3.74,7.59-.9,1.7-14.74,13.11-17.07,13.87C21,112.56,19.94,110,21.31,107Z" transform="translate(85.94)"/><path class="cls-25" d="M37,98.56c1.22-2.38,2.19-4.72,1.86-7.4,1.46,1.57,3.06,4.61,2,6.65-.81,1.53-12.12,10.94-16.06,13.35C25.51,110.6,35.33,101.72,37,98.56Z" transform="translate(85.94)"/><path class="cls-17" d="M44.64,76.59s3.83-5.83,6-5.49,3.8.92,4.27,3.49a7.39,7.39,0,0,1-.33,4.71s2.19,3.18-1.72,6.11-8.34-.81-9.18-4.59c0,0-3.06.22-2.78-2.51S42.93,75.87,44.64,76.59Z" transform="translate(85.94)"/><path class="cls-25" d="M44.64,76.59s3.83-5.83,6-5.49c1.73.26,3.13.7,3.86,2.18-1.33-.71-7.72,3.69-8.57,7A4.65,4.65,0,0,0,51.47,86a6,6,0,0,0,1.15-.39c-3.85,2.62-8.13-1-8.95-4.75,0,0-3.06.22-2.78-2.51S42.93,75.87,44.64,76.59Z" transform="translate(85.94)"/><path class="cls-17" d="M59.93,108.75c-4.4,1.38-3.38,7-.26,6.77,4.61-.29,16.43-6.3,19.13-5.58s3.68,2.81,5.82.79,2.18-3.11,1.55-4.94-3.5-1.19-6.36.19S63.58,107.6,59.93,108.75Z" transform="translate(85.94)"/><path class="cls-18" d="M56.31,75.9a11.28,11.28,0,0,1-4.65-3.67C50.23,69.89,49.17,70,49.17,70,55.5,68.87,56.31,75.9,56.31,75.9Z" transform="translate(85.94)"/><path class="cls-18" d="M50.88,70.77c.73,1,.39,3.24-2.55,5.2S45.41,81.18,44,79.06s-1.4-2.41-1-4.73S49.28,68.67,50.88,70.77Z" transform="translate(85.94)"/><path class="cls-28" d="M30.72,107.33s9.33-8.1,10.52-9.72-1.3-7-4-7.54l-.14.13c-.9.81-6,5.39-10.34,9.83C26.73,100,26.21,103.42,30.72,107.33Z" transform="translate(85.94)"/><path class="cls-20" d="M30.72,107.33s9.33-8.1,10.52-9.72-1.3-7-4-7.54l-.14.13v0s4,4.15,2.39,7.12S31.83,104.15,30.72,107.33Z" transform="translate(85.94)"/><path class="cls-17" d="M44.22,108.39c2.58-1.08,6.62,0,7.18,2.14a4.45,4.45,0,0,1,.14,1.63,5.26,5.26,0,0,1-1.51,3.1c-.09.1-1.94.59-1.92.33a16.84,16.84,0,0,1-3.52-2.83c-2.3-2.19-15.5.33-20.15,0s-4.72-5.86-1.61-6.07C27.44,106.39,41.64,109.46,44.22,108.39Z" transform="translate(85.94)"/><rect class="cls-2" x="63" y="112.83" width="34.39" height="1.82" transform="translate(69.88 13.23) rotate(-8.58)"/><path class="cls-2" d="M63.33,117.2l-15.65,2.36-.16-1a.8.8,0,0,1,.67-.9l14.87-2.24Z" transform="translate(85.94)"/><path class="cls-2" d="M96.1,110.42l-33.87,5.11L63.55,94a1.29,1.29,0,0,1,1.07-1.22l30.5-4.6a2,2,0,0,1,2.21,2.17Z" transform="translate(85.94)"/><path class="cls-29" d="M96.92,110.3l-33.86,5.11,1.31-21.53a1.28,1.28,0,0,1,1.07-1.22L96.58,88a1.46,1.46,0,0,1,1.61,1.58Z" transform="translate(85.94)"/><polygon class="cls-30" points="166.27 90.41 179.11 110.86 174.75 111.52 161.55 91.12 166.27 90.41"/><polygon class="cls-30" points="159.14 91.48 171.98 111.94 170.28 112.19 157.09 91.8 159.14 91.48"/><path class="cls-19" d="M147.22,129.86a21.66,21.66,0,0,1,6-11c2-1.66,7.42-1.5,9.63,3s3,7.29,2.41,15.46-7.39,36.11-7.4,42.24-12.76,5.46-12.08-3.32S145.72,136.77,147.22,129.86Z" transform="translate(85.94)"/><path class="cls-18" d="M165.47,131.6a20.92,20.92,0,0,0-2.59-9.69,7,7,0,0,0-5.56-4l-.4,0-.34,0a8.14,8.14,0,0,0-1,.06,6,6,0,0,0-1.18.27c-.18.07-.35.14-.51.22l-.23.13a3.3,3.3,0,0,0-.41.29l-.25.23-.16.15-.06.06-.12.13-.07.07a1.85,1.85,0,0,0-.14.14l-.06.07-.43.49-.07.08-.16.2-.08.09-.17.22-.07.09c-.16.21-.33.43-.5.67l-.07.1-.19.27-.08.12c-.06.09-.12.19-.19.28l-.07.12c-.17.27-.35.55-.52.84a.75.75,0,0,1-.07.12l-.18.33-.09.15-.18.34s-.05.09-.07.14l-.25.49h0l-.24.51-.06.15-.17.38-.07.18c-.06.13-.11.26-.16.39s0,.11-.07.17-.14.37-.2.56h0l-.19.58-.06.19c0,.13-.08.27-.13.41l-.06.22c0,.14-.07.28-.11.42a1.94,1.94,0,0,0,0,.2l-.15.63h0c0,.12-.05.24-.07.37l0,.14c0,.09,0,.18-.05.28a1.11,1.11,0,0,1,0,.17,2.54,2.54,0,0,0,0,.29l0,.18c0,.11,0,.22,0,.33s0,.12,0,.18,0,.26,0,.4v.14c0,.38-.07.78-.11,1.21,0,0,0,.09,0,.13s0,.35,0,.53v.17c0,.17,0,.35,0,.52a1.09,1.09,0,0,1,0,.18l0,.57s0,.1,0,.15c0,.24,0,.48,0,.73h0c0,.79-.07,1.63-.11,2.5v.06l0,.83V140l0,.88h0c5.42,3.87,14.75,3.79,14.45,6.55-.14,1.24-4.09,27.76-4.55,28.79,0,.12.72,3.92,1.57,3.89a4,4,0,0,0,0-.49c0-6,6.57-33.17,7.36-41.83v0l0-.39c.1-1.28.16-2.42.18-3.46C165.5,133.08,165.49,132.31,165.47,131.6Z" transform="translate(85.94)"/><path class="cls-19" d="M176.59,130a28.17,28.17,0,0,0-8-11.13c-2.25-1.7-7.68-1.63-9.1,2.88s-1.75,7.26.29,15.47,9.77,36.25,10.85,42.4,12.61,1.28,11.29-7.71C180.51,161.93,179.29,136.93,176.59,130Z" transform="translate(85.94)"/><path class="cls-18" d="M164,142.13c2.85-.47,7.29-1.22,8.32-.9a5.23,5.23,0,0,1,3.84,4.86c0,2.68,4.21,28.47,4.21,28.58a18,18,0,0,0,1.7-1.58,10,10,0,0,0-.1-1.21c-1.46-9.95-2.68-34.95-5.38-41.91a28.75,28.75,0,0,0-7.49-10.76l-.46-.37c-2.25-1.7-7.68-1.63-9.1,2.88s-1.75,7.26.29,15.47c.1.4.56,1.77,1,3A2.87,2.87,0,0,0,164,142.13Z" transform="translate(85.94)"/><path class="cls-19" d="M140.86,103.35c1.22-2.49,2.78-4.28,7.2-10l.49-.79c3.17-4.72,5.12-10.94,5.76-11.76,2.4-3.09,10.67-3.33,9.32,5-1.22,7.59-9.84,20.31-14.93,22.38-1.91.78-5.9-.47-6.88-2C142,106,140.51,104.07,140.86,103.35Z" transform="translate(85.94)"/><path class="cls-17" d="M146.66,99.56c-5.51-1.37-22.23-.06-25.17-2-2-1.29-1.32,5.61.37,5.43,3.88-.41,18,4.32,23.6,5.16C150.27,108.91,150.39,100.49,146.66,99.56Z" transform="translate(85.94)"/><path class="cls-18" d="M166.21,66.76c-.54,4.12,4.5,5.75,4.5,5.75.4-3.05,3.84-4.77,5-8.49s-1.15-7.93-6.56-7.77C165.8,56.35,166.75,62.65,166.21,66.76Z" transform="translate(85.94)"/><path class="cls-11" d="M170.59,78.42c2.89.37,8.16,1.68,9.73,4.43s.43,29.06-1.57,46.27c0,0-23.9,10.1-32.39-.75,0,0,5.92-44.32,9.3-48.43C158.49,76.51,167.71,78.05,170.59,78.42Z" transform="translate(85.94)"/><path class="cls-31" d="M171.19,78.5s-10.09,14-11.26,15.17c0,0,.36-12,.58-15.64Z" transform="translate(85.94)"/><path class="cls-32" d="M169.34,72.56c.11-.53.21-.88.21-.88s-5.72-4.56-6.48.07Z" transform="translate(85.94)"/><path class="cls-17" d="M163.2,81.43l-1.74-3.31s1.8-1.21,1.56-4.38c-.59-7.74,6.54-2.06,6.54-2.06s-1.3,6.44,1,6.74Z" transform="translate(85.94)"/><path class="cls-25" d="M163.24,79.91c4,.52,3.82-4.51,4-5.45s2.31-2.78,2.31-2.78-1.3,6.44,1,6.74l-7.39,3-1-2A2.21,2.21,0,0,0,163.24,79.91Z" transform="translate(85.94)"/><path class="cls-19" d="M181.06,98.69l-1.92-6.34-2.47,13.26s1,27.14-25.13,26.51c10.43,4.09,27.21-3,27.21-3C179.71,120.87,180.7,107.52,181.06,98.69Z" transform="translate(85.94)"/><path class="cls-17" d="M161,60.59l-2,8.93c-.35,2.67,2.44,5.23,5.25,5.6h0A5,5,0,0,0,170,71l0-.22A3.16,3.16,0,0,0,173.38,68c.39-2.95-1.71-2-1.71-2l.16-1.27a2.65,2.65,0,0,0-2.29-3Z" transform="translate(85.94)"/><path class="cls-25" d="M171.67,66l.18-1.38a2.55,2.55,0,0,0-2.19-2.86l-1.44-.19v.09l-1.35,10.23A3.37,3.37,0,0,1,163,74.52a6.4,6.4,0,0,1-2-.86,6.34,6.34,0,0,0,3.29,1.46A5,5,0,0,0,170,71l0-.22A3.16,3.16,0,0,0,173.38,68C173.77,65,171.67,66,171.67,66Z" transform="translate(85.94)"/><path class="cls-2" d="M162.33,77.11a9.27,9.27,0,0,0,.87,4.31,2,2,0,0,0-2.45.63,1.6,1.6,0,0,1-1,.59,22.34,22.34,0,0,1,.82-4.75Z" transform="translate(85.94)"/><path class="cls-11" d="M192.32,99c-1.64-2.22-12-16.47-12.75-17.16-2.91-2.61-11.1-1.38-8.28,6.59,2.56,7.24,8.79,15.57,14.17,16.7,2,.42,5.73-1.51,6.42-3.17C192,101.45,192.8,99.61,192.32,99Z" transform="translate(85.94)"/><path class="cls-17" d="M187.31,105.54c-5.53-1.29-19.82-10.07-23.3-9.72-2.36.23,1.38-5.6,2.8-4.67,3.27,2.13,17.95,4.32,23.36,6.15C194.79,98.85,191.06,106.41,187.31,105.54Z" transform="translate(85.94)"/><path class="cls-2" d="M169.37,76.94c-1.31,2-6.17,4.49-6.17,4.49s1.49-.32,2.92,1.61a3.35,3.35,0,0,0,1.56,1.11s3.08-2.37,3.51-5.65Z" transform="translate(85.94)"/><path class="cls-18" d="M168.53,60.67a6.47,6.47,0,0,1-5.86,1.41c-3.62-.85-4.19,1-4.19,1s-.85-6.91,4.14-8.67,7.49,1.83,7.49,1.83Z" transform="translate(85.94)"/><path class="cls-17" d="M154.45,97.29c1-1.2,1.93-2.39,1.11-1.55-1.05,1.08-2.76.39-1.72-.68a21.17,21.17,0,0,1,4.3-3.94c1.8-1,6.45.35,8.36-.07.76-.16,1.32,3.52.8,3.93-1.7,1.38-4.27,1-4.54,1.2a20.17,20.17,0,0,0-1.34,2c-.63,1-2.61.82-2-.16.4-.63.07-.73-.53.14-.77,1.11-2.8.81-2-.29.32-.47.3-.74-.18-.15C155.71,98.93,153.48,98.48,154.45,97.29Z" transform="translate(85.94)"/><rect class="cls-2" x="195.89" y="99.19" width="37.14" height="1.96"/><path class="cls-2" d="M147.09,101.15h17.09v-1.1a.85.85,0,0,0-.85-.86H147.09Z" transform="translate(85.94)"/><path class="cls-2" d="M111,99.19h37l-4.87-22.78a1.39,1.39,0,0,0-1.34-1.13H108.47a2.15,2.15,0,0,0-2,2.68Z" transform="translate(85.94)"/><path class="cls-33" d="M110.1,99.19h37l-4.87-22.78a1.39,1.39,0,0,0-1.34-1.13h-34a1.58,1.58,0,0,0-1.47,2Z" transform="translate(85.94)"/><polygon class="cls-30" points="210.56 75.28 200.15 99.19 204.91 99.19 215.72 75.28 210.56 75.28"/><polygon class="cls-30" points="218.35 75.28 207.93 99.19 209.79 99.19 220.59 75.28 218.35 75.28"/><path class="cls-17" d="M125.29,101.14c-.14-.4-.6-1.08-1.13-.9a.51.51,0,0,0-.16.09,2.63,2.63,0,0,0-.17-.86c-.23-.59-.91-1.43-1.57-.83a2.17,2.17,0,0,0-.55.91,1.79,1.79,0,0,0-1.22-1.15c-.95-.27-1.26.41-1.37,1.17-.27-.72-.84-1.74-1.61-1.11a3.71,3.71,0,0,0-.8,1.61,9.31,9.31,0,0,0-.45,2.22.27.27,0,0,0,0,.09.33.33,0,0,0,0,.32c.4.74,1.37,1.45,2.08.66a4.07,4.07,0,0,0,.47-.7c.06.7.31,1.3,1,1.37s1.25-.56,1.57-1.3a.13.13,0,0,0,0,0c.24.29.56.68,1,.62a1.25,1.25,0,0,0,.78-.67.31.31,0,0,0,.14.19A1.42,1.42,0,0,0,125.29,101.14Z" transform="translate(85.94)"/><path class="cls-17" d="M187.18,214.23c-3-1-3.67-5.54-4-8.22l-4.31,1.56s1.7,4.58,1,7.7.26,2.83.26,2.83h13.26A24.11,24.11,0,0,0,187.18,214.23Z" transform="translate(85.94)"/><path class="cls-18" d="M193.7,218.47H180.26s-.5.16-.69-.85a3.82,3.82,0,0,1,0-1.87c0-.26,0-.53.07-.8a7.67,7.67,0,0,0,3.18-.84c.55-1.49,2.5-2.16,3-1.4.8,1.37,2.48,1.69,3.64,2.08,2.55.86,3.17,1.85,3.78,2.83A5,5,0,0,1,193.7,218.47Z" transform="translate(85.94)"/><path class="cls-18" d="M193.7,218.47H180.26s-.5.16-.69-.85h13.68A5,5,0,0,1,193.7,218.47Z" transform="translate(85.94)"/><path class="cls-19" d="M181.23,170.71c3.9,3.19,2.12,26.07,4.08,41.28,0,0-4.51,1-7.23-.17,0,0-7.41-26.77-7.41-33C170.67,167.87,177.05,167.3,181.23,170.71Z" transform="translate(85.94)"/><path class="cls-17" d="M144,214.54c3-1,1.61-5.74,1.94-8.41l4.3,1.6a77.8,77.8,0,0,0,1,7.92c.64,3.12-.29,2.82-.29,2.82l-13.51-.14A28,28,0,0,1,144,214.54Z" transform="translate(85.94)"/><path class="cls-18" d="M144,214.54c.9-.28,1.11-.87,1.65-1.73.35-.6,1.4.45,1.92,1.63,0,0,2.33.95,3.58.57,0,.22,0,.43.1.64.64,3.12-.29,2.82-.29,2.82l-13.51-.14C138.14,215.79,141.14,215.41,144,214.54Z" transform="translate(85.94)"/><path class="cls-18" d="M151.47,217.66c-.06,1-.51.81-.51.81l-13.51-.14a2.56,2.56,0,0,1,.33-.81Z" transform="translate(85.94)"/><path class="cls-19" d="M146.63,175.46c-2.5,2.77-1,21.76-1.66,35.49,0,0,4.54,1.34,7.15.16,0,0,7.18-26.43,5.62-31.89C155.65,171.89,150,171.75,146.63,175.46Z" transform="translate(85.94)"/><path class="cls-18" d="M157.74,179.22a12.32,12.32,0,0,0-1.2-2.89c0,.35-5,23.68-5.53,35.12a4.91,4.91,0,0,0,.71-.19l.4-.15s2.28-8.63,4.15-17.45C157.51,187.49,158.4,181.51,157.74,179.22Z" transform="translate(85.94)"/><path class="cls-18" d="M181.23,170.71a9.63,9.63,0,0,0-1.57-1c.51,2.09,2.55,10.79,2.41,17-.15,6.91,1.17,23.37,1.73,25.57.91-.11,1.51-.25,1.51-.25C183.35,196.78,185.13,173.9,181.23,170.71Z" transform="translate(85.94)"/><rect class="cls-20" x="190.01" y="48.16" width="31.79" height="19.84" rx="3.17" transform="translate(497.75 116.17) rotate(180)"/><rect class="cls-34" x="191.46" y="48.16" width="31.79" height="19.84" rx="3.17" transform="translate(500.65 116.17) rotate(180)"/><path class="cls-35" d="M200.57,59.27l1.65.52A3.76,3.76,0,0,1,201,61.84a3.59,3.59,0,0,1-2.24.67A3.63,3.63,0,0,1,196,61.37a4.4,4.4,0,0,1-1.08-3.14A4.6,4.6,0,0,1,196,55a3.69,3.69,0,0,1,2.85-1.16,3.49,3.49,0,0,1,2.51.91,3.26,3.26,0,0,1,.86,1.55l-1.68.4a1.73,1.73,0,0,0-.62-1,1.75,1.75,0,0,0-1.15-.38,1.9,1.9,0,0,0-1.52.67,3.29,3.29,0,0,0-.58,2.18,3.54,3.54,0,0,0,.57,2.27,1.87,1.87,0,0,0,1.49.68,1.76,1.76,0,0,0,1.17-.43A2.54,2.54,0,0,0,200.57,59.27Z" transform="translate(85.94)"/><path class="cls-35" d="M205.51,61.16V59h-2.2V57.46h2.2V55.27H207v2.19h2.22V59H207v2.19Z" transform="translate(85.94)"/><path class="cls-35" d="M212.38,61.16V59h-2.2V57.46h2.2V55.27h1.47v2.19h2.21V59h-2.21v2.19Z" transform="translate(85.94)"/><rect class="cls-19" x="77.18" y="47.29" width="37.73" height="19.84" rx="3.17" transform="translate(278.03 114.43) rotate(180)"/><rect class="cls-11" x="78.63" y="47.29" width="37.73" height="19.84" rx="3.17" transform="translate(280.93 114.43) rotate(180)"/><path class="cls-35" d="M85.39,53.08h1.7v5.33A5.23,5.23,0,0,1,86.9,60,2.27,2.27,0,0,1,86,61.2a3.05,3.05,0,0,1-1.71.44,2.52,2.52,0,0,1-1.92-.7,2.81,2.81,0,0,1-.68-2l1.6-.19a2.26,2.26,0,0,0,.21,1,.92.92,0,0,0,.84.46.93.93,0,0,0,.81-.33,2.6,2.6,0,0,0,.23-1.34Z" transform="translate(85.94)"/><path class="cls-35" d="M96.49,61.5H94.64l-.74-1.92H90.54l-.7,1.92H88l3.28-8.42h1.8Zm-3.13-3.33L92.2,55l-1.14,3.13Z" transform="translate(85.94)"/><path class="cls-35" d="M98.67,61.5l-3-8.42H97.5l2.13,6.23,2.06-6.23h1.8l-3,8.42Z" transform="translate(85.94)"/><path class="cls-35" d="M111.08,61.5h-1.85l-.73-1.92h-3.37l-.69,1.92h-1.81l3.28-8.42h1.8ZM108,58.17,106.79,55l-1.14,3.13Z" transform="translate(85.94)"/><rect class="cls-18" x="130.27" width="26.93" height="19.84" rx="3.17" transform="translate(373.41 19.84) rotate(180)"/><rect class="cls-36" x="131.72" width="26.93" height="19.84" rx="3.17" transform="translate(376.32 19.84) rotate(180)"/><path class="cls-35" d="M141.9,13.24l-5.77-2.51V9.34l5.77-2.49V8.48l-4,1.54,4,1.6Z" transform="translate(85.94)"/><path class="cls-35" d="M142.44,14.35l2.08-8.71h1.21l-2.11,8.71Z" transform="translate(85.94)"/><path class="cls-35" d="M146.27,13.25V11.62l4-1.58-4-1.57V6.86L152,9.36v1.37Z" transform="translate(85.94)"/><rect class="cls-20" x="26.47" y="9.98" width="37.73" height="19.84" rx="3.17" transform="translate(176.6 39.79) rotate(180)"/><rect class="cls-37" x="27.92" y="9.98" width="37.73" height="19.84" rx="3.17" transform="translate(179.51 39.79) rotate(180)"/><path class="cls-35" d="M35.24,21.08l1.65.53a3.72,3.72,0,0,1-6.26,1.57A4.44,4.44,0,0,1,29.56,20a4.61,4.61,0,0,1,1.08-3.26,3.71,3.71,0,0,1,2.86-1.16,3.48,3.48,0,0,1,2.5.91,3.36,3.36,0,0,1,.87,1.55l-1.69.4a1.76,1.76,0,0,0-.62-1,1.81,1.81,0,0,0-1.15-.38,1.9,1.9,0,0,0-1.52.67,3.31,3.31,0,0,0-.58,2.18,3.54,3.54,0,0,0,.57,2.27,1.84,1.84,0,0,0,1.49.68,1.69,1.69,0,0,0,1.17-.43A2.47,2.47,0,0,0,35.24,21.08Z" transform="translate(85.94)"/><path class="cls-35" d="M37.92,21.44l1.65-.16a2,2,0,0,0,.61,1.22,1.81,1.81,0,0,0,1.23.39,1.91,1.91,0,0,0,1.24-.34,1.08,1.08,0,0,0,.41-.82.78.78,0,0,0-.17-.5,1.39,1.39,0,0,0-.61-.37c-.2-.07-.66-.19-1.36-.37A4.45,4.45,0,0,1,39,19.66,2.18,2.18,0,0,1,38.22,18a2.15,2.15,0,0,1,.37-1.21,2.3,2.3,0,0,1,1-.85,4.09,4.09,0,0,1,1.65-.29,3.57,3.57,0,0,1,2.39.69,2.45,2.45,0,0,1,.84,1.86l-1.7.07a1.43,1.43,0,0,0-.47-.93A1.69,1.69,0,0,0,41.28,17a2,2,0,0,0-1.16.31.61.61,0,0,0-.27.52.63.63,0,0,0,.25.51,4.45,4.45,0,0,0,1.56.57,8,8,0,0,1,1.84.6,2.49,2.49,0,0,1,.93.86,2.54,2.54,0,0,1,.33,1.34,2.45,2.45,0,0,1-.4,1.35,2.41,2.41,0,0,1-1.14.94,4.66,4.66,0,0,1-1.83.31,3.66,3.66,0,0,1-2.45-.74A3.2,3.2,0,0,1,37.92,21.44Z" transform="translate(85.94)"/><path class="cls-35" d="M45.76,21.44l1.66-.16A2,2,0,0,0,48,22.5a1.85,1.85,0,0,0,1.23.39,1.91,1.91,0,0,0,1.24-.34,1.06,1.06,0,0,0,.42-.82.73.73,0,0,0-.18-.5,1.33,1.33,0,0,0-.61-.37c-.2-.07-.65-.19-1.36-.37a4.57,4.57,0,0,1-1.92-.83A2.17,2.17,0,0,1,46.07,18a2.22,2.22,0,0,1,.36-1.21,2.3,2.3,0,0,1,1-.85,4.15,4.15,0,0,1,1.66-.29,3.54,3.54,0,0,1,2.38.69,2.46,2.46,0,0,1,.85,1.86l-1.7.07a1.47,1.47,0,0,0-.47-.93A1.72,1.72,0,0,0,49.12,17a2,2,0,0,0-1.16.31.61.61,0,0,0-.27.52.66.66,0,0,0,.25.51,4.62,4.62,0,0,0,1.57.57,7.91,7.91,0,0,1,1.83.6,2.34,2.34,0,0,1,.93.86,2.45,2.45,0,0,1,.34,1.34,2.53,2.53,0,0,1-.4,1.35,2.41,2.41,0,0,1-1.14.94,4.66,4.66,0,0,1-1.83.31,3.67,3.67,0,0,1-2.46-.74A3.2,3.2,0,0,1,45.76,21.44Z" transform="translate(85.94)"/><path class="cls-35" d="M53.62,22l1.57-.19a1.45,1.45,0,0,0,.4.91,1.13,1.13,0,0,0,1.63-.06,1.49,1.49,0,0,0,.34-1,1.41,1.41,0,0,0-.32-1,1.05,1.05,0,0,0-.8-.36,2.76,2.76,0,0,0-.74.12l.17-1.31a1.42,1.42,0,0,0,1-.28,1,1,0,0,0,.35-.81.88.88,0,0,0-.93-.93,1,1,0,0,0-.7.29,1.31,1.31,0,0,0-.36.84l-1.49-.25a3.38,3.38,0,0,1,.47-1.22,2,2,0,0,1,.88-.72,2.83,2.83,0,0,1,1.25-.26,2.53,2.53,0,0,1,1.91.75,1.93,1.93,0,0,1-.62,3.18,1.9,1.9,0,0,1,1.15.69,2,2,0,0,1,.44,1.3,2.53,2.53,0,0,1-.81,1.89,3,3,0,0,1-3.91.13A2.62,2.62,0,0,1,53.62,22Z" transform="translate(85.94)"/></g></g></svg>